<svg id="transaction" xmlns="http://www.w3.org/2000/svg" viewBox="0 0 32 32">
    <title>transaction</title>
    <g id="Transaction-2" data-name="Transaction">
        <path d="M20.13,17.93v1a5,5,0,0,1-5,5H11.87a3,3,0,0,1-1.68,2.61,2.94,2.94,0,0,1-1.32.31A3,3,0,0,1,7,26.21L3.29,23.3a3,3,0,0,1,0-4.74L7,15.65a3,3,0,0,1,3.21-.34,2.86,2.86,0,0,1,1.46,1.62h7.43A1,1,0,0,1,20.13,17.93Z"/>
        <path d="M29.87,11.07a3,3,0,0,1-1.16,2.37L25,16.35a3.09,3.09,0,0,1-1.89.65,2.94,2.94,0,0,1-1.32-.31,2.86,2.86,0,0,1-1.46-1.62H12.87a1,1,0,0,1-1-1v-1a5,5,0,0,1,5-5h3.26A3,3,0,0,1,25,5.79L28.71,8.7A3,3,0,0,1,29.87,11.07Z"/>
    </g>
</svg>