<svg xmlns="http://www.w3.org/2000/svg" viewBox="0 0 32 32">
    <title>airplane</title>
    <g id="airplane">
        <g id="airplane-2" data-name="airplane">
            <path d="M9,11,4.05,12.6a3,3,0,0,0-2,2.84V17a3,3,0,0,0,3,3H9Z"/>
            <path d="M28,12.6,23,11V20h4a3,3,0,0,0,3-3V15.44A3,3,0,0,0,28,12.6Z"/>
            <path d="M24.43,24.69,21,23.32V7A5,5,0,0,0,11,7V23.32L7.57,24.69A2.51,2.51,0,0,0,6,27v.48A2.5,2.5,0,0,0,8.5,30h15A2.5,2.5,0,0,0,26,27.5V27A2.51,2.51,0,0,0,24.43,24.69Z"/>
        </g>
    </g>
</svg>