<svg xmlns="http://www.w3.org/2000/svg" viewBox="0 0 32 32">
    <title>ambulance</title>
    <g id="ambulance">
        <path d="M29.89,14a5.09,5.09,0,0,0-.52-1.39L26,6.57A5,5,0,0,0,21.65,4H7A5,5,0,0,0,2,9V20a5,5,0,0,0,4.11,4.92,4,4,0,0,0,7.76.08h5.26A4,4,0,0,0,27,24.61,5,5,0,0,0,30,20V15A5.17,5.17,0,0,0,29.89,14ZM11.73,25A2,2,0,1,1,12,24,2,2,0,0,1,11.73,25ZM13,14H11v2a1,1,0,0,1-2,0V14H7a1,1,0,0,1,0-2H9V10a1,1,0,0,1,2,0v2h2a1,1,0,0,1,0,2ZM24.73,25A2,2,0,1,1,25,24,2,2,0,0,1,24.73,25ZM18,14V6h3.65a3,3,0,0,1,2.62,1.54l3.35,6a2.26,2.26,0,0,1,.19.42Z"/>
    </g>
</svg>