<svg xmlns="http://www.w3.org/2000/svg" viewBox="0 0 32 32">
    <title>apple</title>
    <g id="apple">
        <path id="apple-2" data-name="apple"
              d="M22.46,8.16A5.86,5.86,0,0,0,24,4.2a5.58,5.58,0,0,0,0-.7,1,1,0,0,0-.49-.74A5.53,5.53,0,0,0,20.67,2,5.64,5.64,0,0,0,15.5,5.44,5,5,0,0,0,12,4a1,1,0,0,0,0,2,3,3,0,0,1,3,2.62,7.73,7.73,0,0,1-.81-.16l-.5-.14A9,9,0,0,0,11.27,8H11a7,7,0,0,0-7,7v.2a13,13,0,0,0,7.72,11.88l1,.45a3,3,0,0,0,2.56-.06l.26-.13a1,1,0,0,1,.9,0l.26.13a3,3,0,0,0,1.34.32,3.07,3.07,0,0,0,1.22-.26l1-.45A13,13,0,0,0,28,15.2V15A7,7,0,0,0,22.46,8.16Z"/>
    </g>
</svg>