<svg xmlns="http://www.w3.org/2000/svg" viewBox="0 0 32 32">
    <title>badminton</title>
    <g id="badminton">
        <path d="M13.47,26.13A6.59,6.59,0,0,1,10,27.24a6.06,6.06,0,0,1-6-6,6.69,6.69,0,0,1,1.12-3.48Z"/>
        <path d="M26.77,17.74,15.15,24.92H15.1L6.28,16.11l0,0L13.5,4.46a3,3,0,0,1,4.65-.52l1,1-3.5,3.51a1,1,0,0,0,0,1.43,1,1,0,0,0,.72.31A1,1,0,0,0,17,9.83l3.51-3.5L22,7.74l-6.33,6.34a1.08,1.08,0,0,0-.23.34,1.06,1.06,0,0,0,.24,1.09,1.14,1.14,0,0,0,.6.3h.12a.47.47,0,0,0,.17,0,.62.62,0,0,0,.19-.07,1,1,0,0,0,.32-.23l6.34-6.33,1.41,1.41-3.51,3.51a1,1,0,0,0-.22.34,1.06,1.06,0,0,0,.24,1.09,1.14,1.14,0,0,0,.6.3H22l.07,0a.54.54,0,0,0,.28-.08,1,1,0,0,0,.33-.23L26.19,12l1.11,1.11a2.9,2.9,0,0,1,.87,2.46A2.94,2.94,0,0,1,26.77,17.74Z"/>
    </g>
</svg>