<svg xmlns="http://www.w3.org/2000/svg" viewBox="0 0 32 32">
    <title>baseball</title>
    <g id="baseball">
        <path d="M25.31,8.44A11,11,0,0,0,22.84,12l.79.21a1,1,0,0,1-.51,1.93l-.89-.24A8.41,8.41,0,0,0,22.06,15H23a1,1,0,0,1,0,2h-.94a8.41,8.41,0,0,0,.17,1.12l.89-.24a1,1,0,0,1,.51,1.93l-.79.21a11,11,0,0,0,2.47,3.54,12,12,0,0,0,0-15.12Z"/>
        <path d="M8.37,12.19l.74-.2A11,11,0,0,0,6.67,8.47a12,12,0,0,0,0,15.06A11,11,0,0,0,9.11,20l-.74-.2a1,1,0,1,1,.51-1.93l.84.23A10.64,10.64,0,0,0,9.89,17H9a1,1,0,0,1,0-2h.89a10.64,10.64,0,0,0-.17-1.11l-.84.23a1,1,0,0,1-.51-1.93Z"/>
        <path d="M20.9,20.55l-1.13.3a1,1,0,0,1-1.22-.71,1,1,0,0,1,.7-1.22l1-.28A12.7,12.7,0,0,1,20.05,17H19a1,1,0,0,1,0-2h1.05a12.7,12.7,0,0,1,.24-1.64l-1-.28a1,1,0,0,1-.7-1.22,1,1,0,0,1,1.22-.71l1.13.3a13.09,13.09,0,0,1,3-4.45A12,12,0,0,0,8,7a12.9,12.9,0,0,1,3,4.44l1.18-.32a1,1,0,0,1,1.22.71,1,1,0,0,1-.7,1.22l-1.09.3A10.71,10.71,0,0,1,11.89,15H13a1,1,0,0,1,0,2H11.89a10.71,10.71,0,0,1-.23,1.62l1.09.3a1,1,0,0,1,.7,1.22,1,1,0,0,1-1.22.71l-1.18-.32A12.9,12.9,0,0,1,8,25a12,12,0,0,0,15.89,0A13.09,13.09,0,0,1,20.9,20.55Z"/>
    </g>
</svg>