<svg xmlns="http://www.w3.org/2000/svg" viewBox="0 0 32 32">
    <title>basketball</title>
    <g id="basketball">
        <path d="M24,7.05a9.76,9.76,0,0,0-.73.71c-.23.24-.44.49-.65.75A12,12,0,0,0,20,15H17V4h.09A12.07,12.07,0,0,1,24,7.05Z"/>
        <path d="M28,15H22.05A9.9,9.9,0,0,1,24,10a7.57,7.57,0,0,1,.73-.88c.21-.22.42-.43.64-.62A11.8,11.8,0,0,1,28,15Z"/>
        <path d="M28,17a11.89,11.89,0,0,1-2.58,6.49c-.23-.2-.44-.41-.65-.63A9.89,9.89,0,0,1,24,22a9.72,9.72,0,0,1-2-5Z"/>
        <path d="M24,24.94a11.92,11.92,0,0,1-5.82,2.86c-.38.07-.78.12-1.18.16V17h3a11.66,11.66,0,0,0,2.59,6.48,9.32,9.32,0,0,0,.65.76A9.61,9.61,0,0,0,24,24.94Z"/>
        <path d="M15,17V28a11.79,11.79,0,0,1-7-3,9.61,9.61,0,0,0,.73-.7c.23-.24.44-.49.65-.75A11.89,11.89,0,0,0,12,17Z"/>
        <path d="M15,4V15H12A11.8,11.8,0,0,0,9.37,8.51a9.06,9.06,0,0,0-.64-.75c-.23-.25-.48-.48-.73-.71A11.84,11.84,0,0,1,15,4Z"/>
        <path d="M10,17A9.83,9.83,0,0,1,8,22a7.64,7.64,0,0,1-.73.87,7.58,7.58,0,0,1-.65.62A11.66,11.66,0,0,1,4,17Z"/>
        <path d="M10,15H4A12,12,0,0,1,6.62,8.51c.23.2.44.41.65.63A9.89,9.89,0,0,1,8,10,9.83,9.83,0,0,1,10,15Z"/>
    </g>
</svg>