<svg xmlns="http://www.w3.org/2000/svg" viewBox="0 0 32 32">
    <title>cassette</title>
    <g id="cassette">
        <path d="M21,22H11a1,1,0,0,0-1,1v3H22V23A1,1,0,0,0,21,22Z"/>
        <path d="M12,14a2,2,0,1,1-1-1.73A2,2,0,0,1,12,14Z"/>
        <path d="M18.54,12a4,4,0,0,0,0,4H13.46a4,4,0,0,0,0-4Z"/>
        <path d="M24,14a2,2,0,1,1-1-1.73A2,2,0,0,1,24,14Z"/>
        <path d="M25,6H7a5,5,0,0,0-5,5V21a5,5,0,0,0,5,5H8V23a3,3,0,0,1,3-3H21a3,3,0,0,1,3,3v3h1a5,5,0,0,0,5-5V11A5,5,0,0,0,25,6ZM22,18H10a4,4,0,0,1,0-8H22a4,4,0,0,1,0,8Z"/>
    </g>
</svg>