<svg xmlns="http://www.w3.org/2000/svg" viewBox="0 0 32 32">
    <title>chair</title>
    <g id="chair">
        <path d="M24,9a7,7,0,0,0-7-7H15A7,7,0,0,0,8,9v3H24Z"/>
        <path d="M24,14.14,23.12,14H8.88a2.84,2.84,0,0,0-.88.14,2.88,2.88,0,0,0-2,2.74v.24A2.88,2.88,0,0,0,8.88,20H15v2H12a3,3,0,0,0-2.89,2.21A2,2,0,0,0,8,26v2a2,2,0,0,0,4,0V26a2,2,0,0,0-.8-1.6A1,1,0,0,1,12,24h8a1,1,0,0,1,.8.4A2,2,0,0,0,20,26v2a2,2,0,0,0,4,0V26a2,2,0,0,0-1.11-1.79A3,3,0,0,0,20,22H17V20h6.12A2.88,2.88,0,0,0,26,17.12v-.24A2.88,2.88,0,0,0,24,14.14Z"/>
    </g>
</svg>