<svg xmlns="http://www.w3.org/2000/svg" viewBox="0 0 32 32">
    <title>coupon</title>
    <g id="coupon">
        <path d="M28.73,8.93,23.07,3.27a5,5,0,0,0-7.07,0L13.88,5.39a1,1,0,0,0,0,1.42,2,2,0,0,1,.51,1.92L16,10.34a1,1,0,0,1,0,1.42,1,1,0,0,1-.71.29,1,1,0,0,1-.7-.29l-.1-.1L13,10.15a2,2,0,0,1-1.93-.51,1,1,0,0,0-1.41,0L3.27,16a5,5,0,0,0,0,7.07l5.66,5.66a5,5,0,0,0,7.07,0l6.36-6.37a1,1,0,0,0,.3-.7,1,1,0,0,0-.3-.71,2,2,0,0,1-.58-1.41,1.81,1.81,0,0,1,.07-.52l-1.51-1.51-.1-.1a1,1,0,0,1,0-1.41,1,1,0,0,1,1.42,0l1.61,1.61a2,2,0,0,1,1.92.51,1,1,0,0,0,1.42,0L28.73,16A5,5,0,0,0,28.73,8.93Zm-9.19,6.36a1,1,0,0,1-.71.3,1,1,0,0,1-.71-.3l-1.41-1.41a1,1,0,0,1,0-1.42,1,1,0,0,1,1.41,0l1.42,1.42A1,1,0,0,1,19.54,15.29Z"/>
    </g>
</svg>