<svg xmlns="http://www.w3.org/2000/svg" viewBox="0 0 32 32">
    <title>football</title>
    <g id="football">
        <path d="M25.1,9.64a9.48,9.48,0,0,1,.35,1.11c.05.15.07.31.11.46s.11.44.14.66,0,.34.07.5.06.43.07.65a.75.75,0,0,1,0,.15,6.65,6.65,0,0,1-.78.08h0l-.24,0c-.32,0-.63,0-.94,0h-.05l-.67-.07a3.11,3.11,0,0,1-.44-.08,3.43,3.43,0,0,1-.34-.06A9.3,9.3,0,0,1,21,12.62,2.73,2.73,0,0,1,19.37,11a5.36,5.36,0,0,1-.23-.71A4.94,4.94,0,0,1,19,9.78a9,9,0,0,1-.18-1.06,5.48,5.48,0,0,1,0-.57,8.88,8.88,0,0,1,0-.9l0-.22,0,0c0-.28.05-.55.07-.83H19a11.7,11.7,0,0,1,2.27.38,11.4,11.4,0,0,1,1.13.36A4.69,4.69,0,0,1,25.1,9.64Z"/>
        <path d="M12.62,21h0c.1.29.2.58.27.87a.23.23,0,0,1,0,.11,6.08,6.08,0,0,1,.16.74,1.28,1.28,0,0,1,.05.27,5.78,5.78,0,0,1,.08.74.41.41,0,0,1,0,.16,9,9,0,0,1,0,.9l0,.21v0a7.71,7.71,0,0,1-.08.84h-.34l-.47-.06-.62-.08-.53-.13-.53-.11c-.35-.1-.7-.22-1-.35a4.72,4.72,0,0,1-2.75-2.75,9.69,9.69,0,0,1-.34-1.08,3,3,0,0,1-.1-.43c0-.23-.11-.46-.16-.69s0-.33-.06-.49-.06-.44-.07-.66a.88.88,0,0,0,0-.17,7,7,0,0,1,.8-.08H7l.24,0c.32,0,.62,0,.93,0a.58.58,0,0,1,.19,0,5.29,5.29,0,0,1,.8.09h.07l.71.16a1.67,1.67,0,0,1,.32.08c.27.08.54.16.81.26A2.7,2.7,0,0,1,12.62,21Z"/>
        <path d="M25.84,15.19h-.05A12,12,0,0,1,15.23,25.79v0h0c0-.29.06-.6.07-.91v-.17c0-.32,0-.64,0-.95A10.45,10.45,0,0,0,15,22c-.06-.29-.13-.57-.21-.85,0,0,0-.07,0-.09a4.22,4.22,0,0,0-.2-.6,1.17,1.17,0,0,0-.06-.2,4.72,4.72,0,0,0-2.75-2.75,8.87,8.87,0,0,0-.87-.29,7.44,7.44,0,0,0-.78-.2L10,17c-.28-.06-.57-.11-.86-.15s-.58-.07-.87-.09H7.1c-.31,0-.62,0-.94.07h0A12,12,0,0,1,16.76,6.21v0h0c0,.29-.06.6-.07.91v.19a7.34,7.34,0,0,0,0,.94,1.55,1.55,0,0,0,0,.21c0,.23,0,.46.07.69A7.83,7.83,0,0,0,17,10a6.15,6.15,0,0,0,.22.87,6,6,0,0,0,.28.85,4.72,4.72,0,0,0,2.75,2.75,6.69,6.69,0,0,0,.86.29,7.27,7.27,0,0,0,.77.2L22,15a11.49,11.49,0,0,0,1.75.23c.31,0,.63,0,.93,0h.19C25.22,15.25,25.53,15.22,25.84,15.19Z"/>
    </g>
</svg>