<svg xmlns="http://www.w3.org/2000/svg" viewBox="0 0 32 32">
    <title>gallery</title>
    <g id="gallery">
        <path d="M23,16.32a3,3,0,0,0-4.24,0L7,28.05c1.69,0,6.78,0,18,0a5,5,0,0,0,4.65-3.2c0-.12.09-.25.13-.38L29.9,24v0a3.85,3.85,0,0,0,.07-.49.53.53,0,0,0,0-.13.09.09,0,0,0,0-.05h0Z"/>
        <path d="M30,8.56A5,5,0,0,0,25,4H7A5,5,0,0,0,2,8.56,3.15,3.15,0,0,0,2,9V23a4.36,4.36,0,0,0,0,.51,4.59,4.59,0,0,0,.1.51s0,0,0,0A7,7,0,0,0,3.9,26.92h0a4.38,4.38,0,0,0,.85.54L17.32,14.9a5,5,0,0,1,7.08,0L30,20.5V9A3.15,3.15,0,0,0,30,8.56ZM8,12.07a2,2,0,1,1,2-2A2,2,0,0,1,8,12.07Z"/>
    </g>
</svg>