<svg xmlns="http://www.w3.org/2000/svg" viewBox="0 0 32 32">
    <title>idea</title>
    <g id="idea">
        <path d="M21,26v1a3,3,0,0,1-3,3H14a3,3,0,0,1-3-3V26Z"/>
        <path d="M26,12a9.93,9.93,0,0,1-3.82,7.85A3,3,0,0,0,21,22.23V24H17V17.82A3,3,0,0,0,19,15V13a3,3,0,0,0-6,0v2a3,3,0,0,0,2,2.82V24H11V22.23a2.93,2.93,0,0,0-1.1-2.32A9.91,9.91,0,0,1,6,12,10.08,10.08,0,0,1,15.69,2,9.85,9.85,0,0,1,23,4.82,9.92,9.92,0,0,1,26,12Z"/>
        <path d="M17,13v2a1,1,0,0,1-2,0V13a1,1,0,0,1,2,0Z"/>
    </g>
</svg>