<svg xmlns="http://www.w3.org/2000/svg" viewBox="0 0 32 32">
    <title>keyboard</title>
    <g id="keyboard">
        <path d="M25,6H7a5,5,0,0,0-5,5V21a5,5,0,0,0,5,5H25a5,5,0,0,0,5-5V11A5,5,0,0,0,25,6Zm-4,5h2a1,1,0,0,1,0,2H21a1,1,0,0,1,0-2Zm-6,0h2a1,1,0,0,1,0,2H15a1,1,0,0,1,0-2Zm0,4h2a1,1,0,0,1,0,2H15a1,1,0,0,1,0-2ZM9,11h2a1,1,0,0,1,0,2H9a1,1,0,0,1,0-2ZM9,21H7a1,1,0,0,1,0-2H9a1,1,0,0,1,0,2Zm2-4H9a1,1,0,0,1,0-2h2a1,1,0,0,1,0,2Zm8,4H13a1,1,0,0,1,0-2h6a1,1,0,0,1,0,2Zm1-5a1,1,0,0,1,1-1h2a1,1,0,0,1,0,2H21A1,1,0,0,1,20,16Zm5,5H23a1,1,0,0,1,0-2h2a1,1,0,0,1,0,2Z"/>
    </g>
</svg>