<svg xmlns="http://www.w3.org/2000/svg" viewBox="0 0 32 32">
    <title>old-television</title>
    <g id="old-television">
        <rect x="8" y="13" width="10" height="10" rx="1"/>
        <path d="M25,7H18.41l2.3-2.29a1,1,0,1,0-1.42-1.42L16,6.59l-3.29-3.3a1,1,0,0,0-1.42,1.42L13.59,7H7a5,5,0,0,0-5,5V24a5,5,0,0,0,5,5H25a5,5,0,0,0,5-5V12A5,5,0,0,0,25,7ZM20,22a3,3,0,0,1-3,3H9a3,3,0,0,1-3-3V14a3,3,0,0,1,3-3h8a3,3,0,0,1,3,3Zm4,0a1,1,0,1,1,1-1A1,1,0,0,1,24,22Zm0-5a2,2,0,1,1,2-2A2,2,0,0,1,24,17Z"/>
    </g>
</svg>