<svg xmlns="http://www.w3.org/2000/svg" viewBox="0 0 32 32">
    <title>passport</title>
    <g id="passport">
        <g id="passport-2" data-name="passport">
            <path d="M16,19.27A8,8,0,0,0,17.93,15H14.07A7.9,7.9,0,0,0,16,19.27Z"/>
            <path d="M13.68,8.49A6,6,0,0,0,10.08,13h2A10.11,10.11,0,0,1,13.68,8.49Z"/>
            <path d="M10.08,15a6,6,0,0,0,3.61,4.52A10,10,0,0,1,12.05,15Z"/>
            <path d="M14.07,13h3.86A8,8,0,0,0,16,8.72,8,8,0,0,0,14.07,13Z"/>
            <path d="M18.31,19.53A6,6,0,0,0,21.92,15H20A10.13,10.13,0,0,1,18.31,19.53Z"/>
            <path d="M23,2H9A5,5,0,0,0,4,7V25a5,5,0,0,0,5,5H23a5,5,0,0,0,5-5V7A5,5,0,0,0,23,2ZM21,26H11a1,1,0,0,1,0-2H21a1,1,0,0,1,0,2Zm-3-4.25A8.12,8.12,0,0,1,16,22a8,8,0,0,1-1.93-.24H14A8,8,0,0,1,14,6.26h.07a7.63,7.63,0,0,1,3.94,0,8,8,0,0,1,0,15.48Z"/>
            <path d="M18.32,8.49A10.11,10.11,0,0,1,20,13h2A6,6,0,0,0,18.32,8.49Z"/>
        </g>
    </g>
</svg>