<svg xmlns="http://www.w3.org/2000/svg" viewBox="0 0 32 32">
    <title>presentation-3</title>
    <g id="presentation-3">
        <path d="M23,4H9A5,5,0,0,0,4,9V19a5,5,0,0,0,5,5h4.59l-2.3,2.29a1,1,0,0,0,0,1.42,1,1,0,0,0,1.42,0L16,24.41l3.29,3.3a1,1,0,0,0,1.42,0,1,1,0,0,0,0-1.42L18.41,24H23a5,5,0,0,0,5-5V9A5,5,0,0,0,23,4Zm1,9a1,1,0,0,1-2,0V11.41l-6.29,6.3a1,1,0,0,1-1.42,0L13,16.41l-3.29,3.3a1,1,0,0,1-1.42,0,1,1,0,0,1,0-1.42l4-4a1,1,0,0,1,1.42,0L15,15.59,20.59,10H19a1,1,0,0,1,0-2h2a3,3,0,0,1,3,3Z"/>
    </g>
</svg>