<svg xmlns="http://www.w3.org/2000/svg" viewBox="0 0 32 32">
    <title>radio</title>
    <g id="radio">
        <circle cx="11" cy="23" r="1"/>
        <path d="M23,12H9a1,1,0,0,0-1,1v2a1,1,0,0,0,1,1h2V15a1,1,0,0,1,2,0v1h2V15a1,1,0,0,1,2,0v1h2V15a1,1,0,0,1,2,0v1h2a1,1,0,0,0,1-1V13A1,1,0,0,0,23,12Z"/>
        <circle cx="21" cy="23" r="1"/>
        <path d="M25,6H16.6l6.18-1.66a1,1,0,1,0-.52-1.93L8.87,6H7a5,5,0,0,0-5,5V25a5,5,0,0,0,5,5H25a5,5,0,0,0,5-5V11A5,5,0,0,0,25,6ZM11,26a3,3,0,1,1,3-3A3,3,0,0,1,11,26Zm10,0a3,3,0,1,1,3-3A3,3,0,0,1,21,26Zm5-11a3,3,0,0,1-3,3H9a3,3,0,0,1-3-3V13a3,3,0,0,1,3-3H23a3,3,0,0,1,3,3Z"/>
    </g>
</svg>