<svg xmlns="http://www.w3.org/2000/svg" viewBox="0 0 32 32">
    <title>salary</title>
    <g id="salary">
        <path d="M23.07,12.94a9.62,9.62,0,0,0-2.32-1.73,7.37,7.37,0,0,0-.69-.34,9.94,9.94,0,0,0-1.47-.53h0l-.48-.11c-.35-.07-.69-.12-1-.16h0l-.47,0H16.4a5,5,0,0,0-.77,0h-.22l-.37,0-.14,0a8,8,0,0,0-1,.15l-.47.11h0a10.55,10.55,0,0,0-1.46.52c-.24.11-.48.22-.7.34A10,10,0,0,0,6,20v3a5,5,0,0,0,5,5H21a5,5,0,0,0,5-5V20A9.86,9.86,0,0,0,23.07,12.94ZM15.5,18h1A2.5,2.5,0,0,1,17,23V23a1,1,0,0,1-2,0H14a1,1,0,0,1,0-2h2.5a.5.5,0,0,0,0-1h-1a2.5,2.5,0,0,1-.5-4.95V15a1,1,0,0,1,2,0h1a1,1,0,0,1,0,2H15.5a.5.5,0,0,0,0,1Z"/>
        <path d="M10.93,9.14l.21-.1a11.84,11.84,0,0,1,1.7-.62A12.4,12.4,0,0,1,16,8a12.09,12.09,0,0,1,3.16.42A11.36,11.36,0,0,1,20.88,9l.19.09.39-2.52a3,3,0,0,0-4.08-3.24l-1,.4a1,1,0,0,1-.74,0l-1-.4a3,3,0,0,0-4.08,3.24Z"/>
    </g>
</svg>