<svg xmlns="http://www.w3.org/2000/svg" viewBox="0 0 32 32">
    <title>school</title>
    <g id="school">
        <path d="M29,28H28V21a3,3,0,0,0-2-2.82V28H24V14.16a3,3,0,0,0-1.51-2.6l-5-2.86A3.06,3.06,0,0,0,17,8.48V7h2a1,1,0,0,0,.38-.08,1,1,0,0,0,.54-.54,1,1,0,0,0,0-.76,1,1,0,0,0-.21-.33l-3-3s0,0,0,0a1,1,0,0,0-.32-.21h0l-.1,0a1.25,1.25,0,0,0-.19,0h-.12a1.25,1.25,0,0,0-.19,0l-.1,0h0a.94.94,0,0,0-.53.53h0s0,0,0,0a.16.16,0,0,0,0,.09A.73.73,0,0,0,15,3V8.48a3.06,3.06,0,0,0-.49.22l-5,2.86A3,3,0,0,0,8,14.16V28H6V18.18A3,3,0,0,0,4,21v7H3a1,1,0,0,0,0,2H29a1,1,0,0,0,0-2ZM18,14h0a1,1,0,0,1,1,1h0a1,1,0,0,1-1,1h0a1,1,0,0,1-1-1h0A1,1,0,0,1,18,14Zm0,4h0a1,1,0,0,1,1,1h0a1,1,0,0,1-1,1h0a1,1,0,0,1-1-1h0A1,1,0,0,1,18,18Zm0,4h0a1,1,0,0,1,1,1h0a1,1,0,0,1-1,1h0a1,1,0,0,1-1-1h0A1,1,0,0,1,18,22Zm-4-8h0a1,1,0,0,1,1,1h0a1,1,0,0,1-1,1h0a1,1,0,0,1-1-1h0A1,1,0,0,1,14,14Zm0,4h0a1,1,0,0,1,1,1h0a1,1,0,0,1-1,1h0a1,1,0,0,1-1-1h0A1,1,0,0,1,14,18Zm0,4h0a1,1,0,0,1,1,1h0a1,1,0,0,1-1,1h0a1,1,0,0,1-1-1h0A1,1,0,0,1,14,22Zm0,6V27a1,1,0,0,1,1-1h2a1,1,0,0,1,1,1v1Z"/>
    </g>
</svg>