<svg xmlns="http://www.w3.org/2000/svg" viewBox="0 0 32 32">
    <title>ship</title>
    <g id="ship">
        <g id="ship-2" data-name="ship">
            <path d="M26,6a5.07,5.07,0,0,0-5-4.06H11A5.07,5.07,0,0,0,6,6Z"/>
            <path d="M26.06,8v2.88L17.79,8.4A6.35,6.35,0,0,0,16,8.14a5.68,5.68,0,0,0-1.76.26l-8.3,2.49V8Z"/>
            <path d="M5.35,20.14a7.48,7.48,0,0,1,4,1.33,1.75,1.75,0,0,0,2.25,0A7.41,7.41,0,0,1,16,20.12a7.36,7.36,0,0,1,4.37,1.35,1.61,1.61,0,0,0,1.14.41,1.65,1.65,0,0,0,1.13-.41,7.48,7.48,0,0,1,4-1.33l1.73-2.25h0a3,3,0,0,0,.48-2.73,3,3,0,0,0-2-2L17.2,10.31a4.23,4.23,0,0,0-2.39,0L5.16,13.2a3,3,0,0,0-2,2,3,3,0,0,0,.48,2.73Z"/>
            <path d="M21.5,25.88a5.4,5.4,0,0,1-3.29-1,3.77,3.77,0,0,0-4.43,0,5.47,5.47,0,0,1-3.29,1,5.56,5.56,0,0,1-3.28-1A3.53,3.53,0,0,0,5,24.12a1,1,0,0,1,0-2,5.47,5.47,0,0,1,3.29,1,3.73,3.73,0,0,0,4.41,0,5.47,5.47,0,0,1,3.29-1,5.53,5.53,0,0,1,3.3,1,3.53,3.53,0,0,0,2.21.72,3.63,3.63,0,0,0,2.21-.72,5.47,5.47,0,0,1,3.29-1,1,1,0,0,1,0,2,3.53,3.53,0,0,0-2.21.72,5.48,5.48,0,0,1-3.19,1Z"/>
            <path d="M21.5,29.88a5.47,5.47,0,0,1-3.29-1,3.77,3.77,0,0,0-4.43,0,5.47,5.47,0,0,1-3.29,1,5.46,5.46,0,0,1-3.28-1A3.53,3.53,0,0,0,5,28.12a1,1,0,0,1,0-2,5.49,5.49,0,0,1,3.29,1,3.5,3.5,0,0,0,2.2.72,3.56,3.56,0,0,0,2.22-.72,5.71,5.71,0,0,1,6.57,0,3.77,3.77,0,0,0,4.43,0,5.47,5.47,0,0,1,3.29-1,1,1,0,0,1,0,2,3.53,3.53,0,0,0-2.21.72A5.49,5.49,0,0,1,21.5,29.88Z"/>
        </g>
    </g>
</svg>