<svg xmlns="http://www.w3.org/2000/svg" viewBox="0 0 32 32">
    <title>train</title>
    <g id="train">
        <g id="train-2" data-name="train">
            <path d="M23,4a4.9,4.9,0,0,1,2.37.63A5,5,0,0,0,21,2H11A5,5,0,0,0,6.63,4.63,4.9,4.9,0,0,1,9,4Z"/>
            <path d="M21,21H11a7,7,0,0,1-5-2.11V23a5,5,0,0,0,5,5H21a5,5,0,0,0,5-5V18.89A7,7,0,0,1,21,21ZM11,25a1,1,0,1,1,1-1A1,1,0,0,1,11,25Zm6,0H15a1,1,0,0,1,0-2h2a1,1,0,0,1,0,2Zm4,0a1,1,0,1,1,1-1A1,1,0,0,1,21,25Z"/>
            <path d="M9,6h6V19H11a5,5,0,0,1-5-5V9A3,3,0,0,1,9,6Z"/>
            <path d="M26,9v5a5,5,0,0,1-5,5H17V6h6A3,3,0,0,1,26,9Z"/>
            <path d="M6.82,28.6,5.71,29.71a1,1,0,0,1-1.42,0,1,1,0,0,1,0-1.42L5.4,27.18A6.38,6.38,0,0,0,6.82,28.6Z"/>
            <path d="M27.71,29.71a1,1,0,0,1-1.42,0L25.18,28.6a6.38,6.38,0,0,0,1.42-1.42l1.11,1.11A1,1,0,0,1,27.71,29.71Z"/>
        </g>
    </g>
</svg>