<svg xmlns="http://www.w3.org/2000/svg" viewBox="0 0 32 32">
    <title>transaction</title>
    <g id="transaction">
        <path d="M28.58,9.7h0L24.84,6.79A3,3,0,0,0,20,9.07H18a6,6,0,0,0-6,6,1,1,0,0,0,1,1h7.17a2.9,2.9,0,0,0,1.46,1.62A3,3,0,0,0,23,18a3.09,3.09,0,0,0,1.88-.65l3.74-2.91a3,3,0,0,0,0-4.74Z"/>
        <path d="M18.74,18.09H11.57a2.85,2.85,0,0,0-1.46-1.63,3,3,0,0,0-3.21.35L3.16,19.72a3,3,0,0,0,0,4.73L6.9,27.36A3,3,0,0,0,8.74,28a2.94,2.94,0,0,0,1.32-.31,3,3,0,0,0,1.68-2.6h2a6,6,0,0,0,6-6A1,1,0,0,0,18.74,18.09Z"/>
    </g>
</svg>