<svg xmlns="http://www.w3.org/2000/svg" viewBox="0 0 32 32">
    <title>van</title>
    <g id="van">
        <path id="van-2" data-name="van"
              d="M29.71,13.87,28.24,9a7,7,0,0,0-6.7-5H7A5,5,0,0,0,2,9V20a5,5,0,0,0,4.11,4.92,4,4,0,0,0,7.76.08h4.26a4,4,0,0,0,7.76-.08A5,5,0,0,0,30,20V15.88A7.18,7.18,0,0,0,29.71,13.87ZM4,14V9A3,3,0,0,1,7,6H9v8Zm6,12a2,2,0,1,1,2-2A2,2,0,0,1,10,26Zm7-12H11V6h6Zm5,12a2,2,0,1,1,2-2A2,2,0,0,1,22,26ZM19,14V6h2.54a5,5,0,0,1,4.78,3.56L27.66,14Zm9,6H27a1,1,0,0,1,0-2h1Z"/>
    </g>
</svg>