<svg xmlns="http://www.w3.org/2000/svg" viewBox="0 0 32 32">
    <title>virtual-reality</title>
    <g id="virtual-reality">
        <circle cx="21" cy="16" r="2"/>
        <circle cx="11" cy="16" r="2"/>
        <path d="M29,12l-.1,0A5,5,0,0,0,24,8H8a5,5,0,0,0-4.9,4L3,12a1,1,0,0,0-1,1v6a1,1,0,0,0,1,1l.1,0A5,5,0,0,0,8,24h4.39a3,3,0,0,0,1.67-.5l1.38-.93a1,1,0,0,1,1.11,0l1.39.93a3,3,0,0,0,1.67.5H24a5,5,0,0,0,4.9-4l.1,0a1,1,0,0,0,1-1V13A1,1,0,0,0,29,12ZM11,20a4,4,0,1,1,4-4A4,4,0,0,1,11,20Zm10,0a4,4,0,1,1,4-4A4,4,0,0,1,21,20Z"/>
    </g>
</svg>