<svg xmlns="http://www.w3.org/2000/svg" viewBox="0 0 32 32">
    <title>volleyball</title>
    <g id="volleyball">
        <path d="M20.16,17.24a10.58,10.58,0,0,1-.44,1.23,8.41,8.41,0,0,1-1.78,2.74,9.86,9.86,0,0,1-2.76,2.17,10.11,10.11,0,0,1-7.76,1,11.49,11.49,0,0,1-1.53-1.93c.08.13.92.15,1.09.17a8.72,8.72,0,0,0,1.14.07,9,9,0,0,0,6.05-2.24,10.43,10.43,0,0,0,1.5-1.69,10.34,10.34,0,0,0,.62-1c0-.08.45-1,.47-1h.11a3.84,3.84,0,0,1,.5,0h.23l.64,0,.19,0c.22,0,.44.06.67.1l.27.06a5.53,5.53,0,0,1,.64.17Z"/>
        <path d="M25.32,23.55a12,12,0,0,1-15.22,2.9,11.06,11.06,0,0,0,4.35-.57c.16-.05.3-.12.45-.18s.25-.09.37-.15a9.81,9.81,0,0,0,1.26-.62,11.61,11.61,0,0,0,1.95-1.39,14.71,14.71,0,0,0,1-1.05l.18-.21a11.63,11.63,0,0,0,.85-1.14c.05-.07.09-.15.14-.23a11.53,11.53,0,0,0,.69-1.24s0,0,0-.05a11.11,11.11,0,0,0,.53-1.35c0-.05,0-.1.05-.15l.09.05C22.32,18.35,25.32,21.08,25.32,23.55Z"/>
        <path d="M15,11.77a10.86,10.86,0,0,1,1.29-.23,8.34,8.34,0,0,1,3.26.16A9.93,9.93,0,0,1,22.8,13a10.09,10.09,0,0,1,4.76,6.22,12.37,12.37,0,0,1-.9,2.29c.07-.15-.33-.88-.4-1a9.7,9.7,0,0,0-.51-1,9.11,9.11,0,0,0-5-4.12,10.47,10.47,0,0,0-2.21-.46c-.37,0-.75-.05-1.13-.05-.09,0-1.06.09-1.07.07a.35.35,0,0,0-.06-.09,2.78,2.78,0,0,1-.28-.42,1.22,1.22,0,0,1-.12-.19c-.11-.18-.2-.37-.3-.57a.87.87,0,0,1-.07-.17c-.1-.2-.17-.42-.25-.63l-.09-.27a5.41,5.41,0,0,1-.17-.64C15,11.87,15,11.82,15,11.77Z"/>
        <path d="M17.88,4.15A12,12,0,0,1,28,15.88a11.11,11.11,0,0,0-2.67-3.48c-.13-.12-.26-.2-.38-.3l-.32-.25a11.2,11.2,0,0,0-1.16-.78,11.35,11.35,0,0,0-2.18-1c-.47-.16-1-.27-1.43-.38l-.27,0a13.74,13.74,0,0,0-1.42-.17H17.9a11.06,11.06,0,0,0-1.41,0h-.06A11.46,11.46,0,0,0,15,9.72l-.16,0a.2.2,0,0,0,0-.11C14.87,9.35,15.74,5.38,17.88,4.15Z"/>
        <path d="M12.84,19A11.4,11.4,0,0,1,12,18a8.57,8.57,0,0,1-1.5-2.91A10,10,0,0,1,10,11.6a10.17,10.17,0,0,1,3-7.24A12.39,12.39,0,0,1,15.45,4c-.17,0-.6.73-.7.86a9.9,9.9,0,0,0-.63,1A9,9,0,0,0,13,12.18a9.44,9.44,0,0,0,.71,2.14,10.62,10.62,0,0,0,.51,1c.05.08.61.87.6.89a.51.51,0,0,0,0,.1,4.83,4.83,0,0,1-.23.45,1.86,1.86,0,0,1-.1.2c-.11.18-.22.36-.35.54l-.11.15a5.43,5.43,0,0,1-.42.53l-.19.21c-.14.16-.3.31-.47.47A1.14,1.14,0,0,1,12.84,19Z"/>
        <path d="M4.8,20.29A12,12,0,0,1,9.9,5.66,10.9,10.9,0,0,0,8.22,9.71a4.28,4.28,0,0,0-.07.48,2.76,2.76,0,0,0-.06.4A9.32,9.32,0,0,0,8,12a11.42,11.42,0,0,0,.23,2.38,13.7,13.7,0,0,0,.39,1.43l.09.26a10.75,10.75,0,0,0,.56,1.31l.13.23a11.57,11.57,0,0,0,.73,1.22s0,0,0,0A11.09,11.09,0,0,0,11.07,20a1,1,0,0,0,.1.11l-.09.06C10.8,20.29,6.93,21.52,4.8,20.29Z"/>
    </g>
</svg>