<svg xmlns="http://www.w3.org/2000/svg" viewBox="0 0 32 32">
    <title>weightlifiting</title>
    <g id="weightlifiting">
        <path d="M5.39,15.29a3,3,0,0,0,0,4.24l7.07,7.07a3,3,0,0,0,5.13-2.12,3,3,0,0,0-.88-2.12L15.29,21,11.05,16.7,9.64,15.29A3,3,0,0,0,5.39,15.29Z"/>
        <path d="M15.29,5.39a3,3,0,0,0,0,4.24l1.42,1.42L21,15.29l1.41,1.41a3,3,0,0,0,4.25-4.24L19.54,5.39A3.09,3.09,0,0,0,15.29,5.39Z"/>
        <path d="M4,20.93a3,3,0,0,0,.57,3.41l3.12,3.11a3,3,0,0,0,2.12.88,3,3,0,0,0,1.28-.3Z"/>
        <path d="M20.94,4l2,2L26,9.07l2,2a3,3,0,0,0-.57-3.41L24.34,4.54A3,3,0,0,0,20.94,4Z"/>
        <rect x="14" y="13" width="4" height="6" transform="translate(-6.62 16) rotate(-45)"/>
    </g>
</svg>