<svg xmlns="http://www.w3.org/2000/svg" viewBox="0 0 32 32">
    <title>wristwatch</title>
    <g id="wristwatch">
        <path d="M16,6a9.94,9.94,0,0,1,6,2V5a3,3,0,0,0-3-3H13a3,3,0,0,0-3,3V8A9.94,9.94,0,0,1,16,6Z"/>
        <path d="M16,26a9.94,9.94,0,0,1-6-2v3a3,3,0,0,0,3,3h6a3,3,0,0,0,3-3V24A9.94,9.94,0,0,1,16,26Z"/>
        <path d="M16,8a8,8,0,1,0,8,8A8,8,0,0,0,16,8Zm1,8a.7.7,0,0,1,0,.14,1.55,1.55,0,0,1,0,.21.83.83,0,0,1-.09.16,1.11,1.11,0,0,1-.11.16.7.7,0,0,1-.17.13.87.87,0,0,1-.11.09l-2,1A.93.93,0,0,1,14,18a1,1,0,0,1-.89-.55,1,1,0,0,1,.44-1.34L15,15.38V13a1,1,0,0,1,2,0Z"/>
    </g>
</svg>