<svg width="33" height="32" viewBox="0 0 33 32" fill="none" xmlns="http://www.w3.org/2000/svg">
    <path d="M28.5 12V25C28.5 26.3261 27.9732 27.5979 27.0355 28.5355C26.0979 29.4732 24.8261 30 23.5 30H9.5C8.17392 30 6.90215 29.4732 5.96447 28.5355C5.02678 27.5979 4.5 26.3261 4.5 25V7C4.5 5.67392 5.02678 4.40215 5.96447 3.46447C6.90215 2.52678 8.17392 2 9.5 2H18.5V9C18.5 9.79565 18.8161 10.5587 19.3787 11.1213C19.9413 11.6839 20.7044 12 21.5 12H28.5Z"
          fill="#0077FF"/>
    <path d="M28.41 9.99997H21.5C21.2348 9.99997 20.9804 9.89461 20.7929 9.70707C20.6054 9.51954 20.5 9.26518 20.5 8.99997V2.08997C21.6834 2.29165 22.7742 2.85803 23.62 3.70997L26.79 6.87997C27.6403 7.72693 28.2064 8.8172 28.41 9.99997Z"
          fill="#0077FF"/>
</svg>
