<svg width="32" height="32" viewBox="0 0 32 32" xmlns="http://www.w3.org/2000/svg">
    <path d="M29 27.9998H28V26.9998C27.9983 26.3809 27.8051 25.7776 27.4471 25.2727C27.089 24.7679 26.5835 24.3861 26 24.1798C25.6806 24.0587 25.3416 23.9976 25 23.9998H7C6.65842 23.9976 6.31938 24.0587 6 24.1798C5.41645 24.3861 4.911 24.7679 4.55294 25.2727C4.19488 25.7776 4.00174 26.3809 4 26.9998V27.9998H3C2.73478 27.9998 2.48043 28.1052 2.29289 28.2927C2.10536 28.4802 2 28.7346 2 28.9998C2 29.265 2.10536 29.5194 2.29289 29.7069C2.48043 29.8945 2.73478 29.9998 3 29.9998H29C29.2652 29.9998 29.5196 29.8945 29.7071 29.7069C29.8946 29.5194 30 29.265 30 28.9998C30 28.7346 29.8946 28.4802 29.7071 28.2927C29.5196 28.1052 29.2652 27.9998 29 27.9998Z"/>
    <path d="M12 16H6V22H12V16Z"/>
    <path d="M26 16H20V22H26V16Z"/>
    <path d="M6.00001 13.8199C6.31939 13.9411 6.65843 14.0021 7.00001 13.9999H25C25.3416 14.0021 25.6806 13.9411 26 13.8199C26.5836 13.6136 27.089 13.2319 27.4471 12.727C27.8051 12.2221 27.9983 11.6189 28 10.9999V10.1899C28.0015 9.65025 27.8574 9.12017 27.5828 8.65555C27.3083 8.19092 26.9135 7.80897 26.44 7.54992L17.44 2.63992C16.9985 2.39835 16.5033 2.27173 16 2.27173C15.4967 2.27173 15.0015 2.39835 14.56 2.63992L5.56001 7.54992C5.08657 7.80897 4.69177 8.19092 4.41722 8.65555C4.14267 9.12017 3.99854 9.65025 4.00001 10.1899V10.9999C4.00175 11.6189 4.19489 12.2221 4.55295 12.727C4.91101 13.2319 5.41646 13.6136 6.00001 13.8199Z"/>
</svg>
