<svg width="32" height="32" viewBox="0 0 32 32" xmlns="http://www.w3.org/2000/svg">
    <path d="M24 2H9V30H24C25.3261 30 26.5979 29.4732 27.5355 28.5355C28.4732 27.5979 29 26.3261 29 25V7C29 5.67392 28.4732 4.40215 27.5355 3.46447C26.5979 2.52678 25.3261 2 24 2ZM14.67 10.33C14.67 9.76138 14.782 9.19832 14.9996 8.67298C15.2172 8.14764 15.5361 7.67031 15.9382 7.26823C16.3403 6.86615 16.8176 6.5472 17.343 6.3296C17.8683 6.112 18.4314 6 19 6C19.5686 6 20.1317 6.112 20.657 6.3296C21.1824 6.5472 21.6597 6.86615 22.0618 7.26823C22.4639 7.67031 22.7828 8.14764 23.0004 8.67298C23.218 9.19832 23.33 9.76138 23.33 10.33V11.67C23.33 12.2386 23.218 12.8017 23.0004 13.327C22.7828 13.8524 22.4639 14.3297 22.0618 14.7318C21.6597 15.1339 21.1824 15.4528 20.657 15.6704C20.1317 15.888 19.5686 16 19 16C18.4314 16 17.8683 15.888 17.343 15.6704C16.8176 15.4528 16.3403 15.1339 15.9382 14.7318C15.5361 14.3297 15.2172 13.8524 14.9996 13.327C14.782 12.8017 14.67 12.2386 14.67 11.67V10.33ZM26 25C26 25.2652 25.8946 25.5196 25.7071 25.7071C25.5196 25.8946 25.2652 26 25 26C24.7348 26 24.4804 25.8946 24.2929 25.7071C24.1054 25.5196 24 25.2652 24 25V21.4C23.9817 21.0883 23.8625 20.791 23.6605 20.5529C23.4585 20.3148 23.1846 20.1488 22.88 20.08L21.07 23.34C20.8563 23.6984 20.5532 23.9952 20.1903 24.2013C19.8275 24.4075 19.4173 24.5158 19 24.5158C18.5827 24.5158 18.1725 24.4075 17.8097 24.2013C17.4468 23.9952 17.1437 23.6984 16.93 23.34L15.12 20.08C14.8154 20.1488 14.5415 20.3148 14.3395 20.5529C14.1375 20.791 14.0183 21.0883 14 21.4V25C14 25.2652 13.8946 25.5196 13.7071 25.7071C13.5196 25.8946 13.2652 26 13 26C12.7348 26 12.4804 25.8946 12.2929 25.7071C12.1054 25.5196 12 25.2652 12 25V21.4C12.039 20.4636 12.4468 19.5806 13.1343 18.9437C13.8218 18.3067 14.7333 17.9675 15.67 18H22.33C23.2667 17.9675 24.1782 18.3067 24.8657 18.9437C25.5532 19.5806 25.961 20.4636 26 21.4V25Z"/>
    <path d="M18.68 22.37C18.7159 22.4216 18.7638 22.4637 18.8195 22.4928C18.8752 22.5219 18.9371 22.5371 19 22.5371C19.0628 22.5371 19.1248 22.5219 19.1805 22.4928C19.2362 22.4637 19.2841 22.4216 19.32 22.37L20.63 20H17.37L18.68 22.37Z"/>
    <path d="M3 6.99998V25C2.99976 26.1526 3.39778 27.27 4.12669 28.1629C4.8556 29.0558 5.87064 29.6694 7 29.9V2.09998C5.87064 2.33051 4.8556 2.94416 4.12669 3.83707C3.39778 4.72999 2.99976 5.84732 3 6.99998Z"/>
    <path d="M19 14C19.306 14 19.6089 13.9397 19.8916 13.8226C20.1743 13.7055 20.4312 13.5339 20.6475 13.3176C20.8639 13.1012 21.0355 12.8443 21.1526 12.5617C21.2697 12.279 21.33 11.976 21.33 11.67V10.33C21.33 10.024 21.2697 9.72104 21.1526 9.43835C21.0355 9.15566 20.8639 8.8988 20.6475 8.68244C20.4312 8.46608 20.1743 8.29445 19.8916 8.17736C19.6089 8.06027 19.306 8 19 8C18.694 8 18.391 8.06027 18.1083 8.17736C17.8256 8.29445 17.5688 8.46608 17.3524 8.68244C17.1361 8.8988 16.9644 9.15566 16.8473 9.43835C16.7302 9.72104 16.67 10.024 16.67 10.33V11.67C16.67 11.976 16.7302 12.279 16.8473 12.5617C16.9644 12.8443 17.1361 13.1012 17.3524 13.3176C17.5688 13.5339 17.8256 13.7055 18.1083 13.8226C18.391 13.9397 18.694 14 19 14Z"/>
</svg>
