<svg width="32" height="32" viewBox="0 0 32 32" fill="none" xmlns="http://www.w3.org/2000/svg">
<path d="M23 16.2801C22.4375 15.7183 21.675 15.4027 20.88 15.4027C20.085 15.4027 19.3225 15.7183 18.76 16.2801L7 28.0001C8.69 28.0001 13.78 28.0001 25 28.0001C26.0072 27.9971 26.99 27.69 27.8198 27.119C28.6495 26.548 29.2874 25.7397 29.65 24.8001C29.65 24.6801 29.74 24.5501 29.78 24.4201L29.9 24.0001C29.9338 23.8384 29.9572 23.6747 29.97 23.5101C29.9753 23.4669 29.9753 23.4232 29.97 23.3801C29.9747 23.3637 29.9747 23.3464 29.97 23.3301L23 16.2801Z" fill="#0077FF"/>
<path d="M29.9999 8.52005C29.8802 7.27884 29.301 6.12714 28.376 5.29092C27.451 4.45469 26.2468 3.9943 24.9999 4.00005H6.99988C5.75292 3.9943 4.54881 4.45469 3.62378 5.29092C2.69875 6.12714 2.11958 7.27884 1.99988 8.52005C1.98767 8.67982 1.98767 8.84029 1.99988 9.00005V23.0001C1.98993 23.1699 1.98993 23.3402 1.99988 23.5101C2.02355 23.6818 2.05694 23.8521 2.09988 24.0201C2.45731 25.1061 3.07532 26.088 3.89988 26.8801C4.16151 27.0921 4.44673 27.2733 4.74988 27.4201L17.3199 14.8601C17.7843 14.3944 18.3361 14.025 18.9435 13.7729C19.551 13.5209 20.2022 13.3911 20.8599 13.3911C21.5176 13.3911 22.1688 13.5209 22.7762 13.7729C23.3837 14.025 23.9354 14.3944 24.3999 14.8601L29.9999 20.4601V9.00005C30.0121 8.84029 30.0121 8.67982 29.9999 8.52005ZM7.99988 12.0001C7.60432 12.0001 7.21764 11.8828 6.88874 11.663C6.55984 11.4432 6.30349 11.1309 6.15212 10.7654C6.00074 10.4 5.96114 9.99783 6.03831 9.60987C6.11548 9.22191 6.30596 8.86555 6.58567 8.58584C6.86537 8.30614 7.22174 8.11565 7.6097 8.03848C7.99766 7.96131 8.39979 8.00092 8.76525 8.15229C9.1307 8.30367 9.44306 8.56001 9.66282 8.88891C9.88258 9.21781 9.99988 9.60449 9.99988 10.0001C9.99988 10.5305 9.78917 11.0392 9.41409 11.4143C9.03902 11.7893 8.53031 12.0001 7.99988 12.0001Z" fill="#0077FF"/>
</svg>
