<svg xmlns="http://www.w3.org/2000/svg" viewBox="0 0 32 32">
    <title>assets-2</title>
    <g id="assets-2">
        <polygon points="10.19 4 16 9.61 21.81 4 10.19 4"/>
        <path d="M24.14,4.53,18.48,10h9.3c-.07-.15-.14-.3-.22-.45L25.09,5.48A3.08,3.08,0,0,0,24.14,4.53Z"/>
        <polygon points="13.11 12 16 22.45 18.89 12 13.11 12"/>
        <path d="M13.52,10,7.86,4.53a3.08,3.08,0,0,0-1,1L4.44,9.55c-.08.15-.15.3-.22.45Z"/>
        <path d="M21,12,17,26.2l.2.72a3,3,0,0,0,1.29-1.05l8.93-13a2.94,2.94,0,0,0,.41-.88Z"/>
        <path d="M15,26.2,11,12H4.13a2.94,2.94,0,0,0,.41.88l8.93,13a3,3,0,0,0,1.29,1.05Z"/>
    </g>
</svg>