<svg xmlns="http://www.w3.org/2000/svg" viewBox="0 0 32 32">
    <title>beach</title>
    <g id="beach">
        <g id="beach-2" data-name="beach">
            <path d="M29,28H28V25a1,1,0,0,0-1-1H17.41l-3.7-3.71a1,1,0,0,0-1.42,1.42L16,25.41V28H10V16h.92a1,1,0,0,0,1-.81A6,6,0,0,0,12,14,7.9,7.9,0,0,0,9.71,8.41a1,1,0,0,0-1.42,0A7.9,7.9,0,0,0,6,14a6,6,0,0,0,.1,1.17,1,1,0,0,0,1,.81H8V28H3a1,1,0,0,0,0,2H29a1,1,0,0,0,0-2ZM18,28V26h8v2Z"/>
            <path d="M3,16H4.26a3,3,0,0,1-.13-.45A8.08,8.08,0,0,1,4,14,10,10,0,0,1,5.33,9,7,7,0,0,0,2,15,1,1,0,0,0,3,16Z"/>
            <path d="M13.87,15.53a3,3,0,0,1-.13.45H15a1,1,0,0,0,1-1A6.89,6.89,0,0,0,14,10a6.58,6.58,0,0,0-1.29-1A9.88,9.88,0,0,1,14,14,8.08,8.08,0,0,1,13.87,15.53Z"/>
            <circle cx="26" cy="6" r="4"/>
        </g>
    </g>
</svg>