<svg xmlns="http://www.w3.org/2000/svg" viewBox="0 0 32 32">
    <title>bed</title>
    <g id="bed">
        <path d="M14.82,13H7.18A3,3,0,0,1,10,11h2A3,3,0,0,1,14.82,13Z"/>
        <path d="M24.82,13H17.18A3,3,0,0,1,20,11h2A3,3,0,0,1,24.82,13Z"/>
        <path d="M28,10v3.1a4.71,4.71,0,0,0-1-.1h-.1A5,5,0,0,0,22,9H20a5,5,0,0,0-4,2,5,5,0,0,0-4-2H10a5,5,0,0,0-4.9,4H5a4.71,4.71,0,0,0-1,.1V10A3,3,0,0,1,7,7H25A3,3,0,0,1,28,10Z"/>
        <rect x="2" y="15" width="28" height="10" rx="3"/>
        <path d="M24.82,13H17.18A3,3,0,0,1,20,11h2A3,3,0,0,1,24.82,13Z"/>
        <path d="M24.82,13H17.18A3,3,0,0,1,20,11h2A3,3,0,0,1,24.82,13Z"/>
        <path d="M14.82,13H7.18A3,3,0,0,1,10,11h2A3,3,0,0,1,14.82,13Z"/>
        <path d="M14.82,13H7.18A3,3,0,0,1,10,11h2A3,3,0,0,1,14.82,13Z"/>
    </g>
</svg>