<svg xmlns="http://www.w3.org/2000/svg" viewBox="0 0 32 32">
    <title>bitcoin</title>
    <g id="bitcoin">
        <g id="Bitcoin-2" data-name="Bitcoin">
            <path d="M16,4A12,12,0,1,0,28,16,12,12,0,0,0,16,4Zm2.65,16.78v.64a1,1,0,0,1-2,0v-.55h-1.1v.55a1,1,0,0,1-2,0v-.75A2.56,2.56,0,0,1,12,18.32V13.68a2.56,2.56,0,0,1,1.55-2.35v-.75a1,1,0,0,1,2,0v.55h1.1v-.55a1,1,0,1,1,2,0v1.08a2.91,2.91,0,0,1,.89,3.82,2.93,2.93,0,0,1-.89,5.3Z"/>
            <path d="M18.88,17.94a.94.94,0,0,1-.94.93H14.55a.55.55,0,0,1-.55-.55V13.68a.55.55,0,0,1,.55-.55H17A.94.94,0,1,1,17,15a1,1,0,1,0,0,2h1A.94.94,0,0,1,18.88,17.94Z"/>
        </g>
    </g>
</svg>