<svg xmlns="http://www.w3.org/2000/svg" viewBox="0 0 32 32">
    <title>bone</title>
    <g id="bone">
        <path id="bone-2" data-name="bone"
              d="M29.46,9.85A5,5,0,0,0,25.75,7.5a5.31,5.31,0,0,0-1.26,0,4.83,4.83,0,0,0,0-1.26,5,5,0,0,0-2.35-3.71,4.93,4.93,0,0,0-5.23,0A5,5,0,0,0,15,9,1,1,0,0,1,14.89,10L10,14.89A1,1,0,0,1,9,15a5,5,0,0,0-6.41,1.9,4.93,4.93,0,0,0,0,5.23A5,5,0,0,0,6.25,24.5a5.31,5.31,0,0,0,1.26,0,4.83,4.83,0,0,0,0,1.26,5,5,0,0,0,2.35,3.71,4.93,4.93,0,0,0,5.23,0A5,5,0,0,0,17,23.05,1,1,0,0,1,17.11,22L22,17.11A.94.94,0,0,1,23.05,17a5,5,0,0,0,6.41-1.9A4.93,4.93,0,0,0,29.46,9.85Z"/>
    </g>
</svg>