<svg xmlns="http://www.w3.org/2000/svg" viewBox="0 0 32 32">
    <title>books</title>
    <g id="books">
        <path d="M10,12v8H8a2,2,0,0,1-2-2V14a2,2,0,0,1,2-2Z"/>
        <path d="M30,14v4a2,2,0,0,1-2,2H26V12h2A2,2,0,0,1,30,14Z"/>
        <rect x="12" y="12" width="12" height="8"/>
        <path d="M26,4V8a2,2,0,0,1-2,2H22V2h2A2,2,0,0,1,26,4Z"/>
        <path d="M6,2v8H4A2,2,0,0,1,2,8V4A2,2,0,0,1,4,2Z"/>
        <rect x="8" y="2" width="12" height="8"/>
        <path d="M28,24v4a2,2,0,0,1-2,2H24V22h2A2,2,0,0,1,28,24Z"/>
        <path d="M8,22v8H6a2,2,0,0,1-2-2V24a2,2,0,0,1,2-2Z"/>
        <rect x="10" y="22" width="12" height="8"/>
    </g>
</svg>