<svg xmlns="http://www.w3.org/2000/svg" viewBox="0 0 32 32">
    <title>bus</title>
    <g id="bus">
        <g id="bus-2" data-name="bus">
            <path d="M11.82,28A3,3,0,0,1,6,27.33,6.92,6.92,0,0,0,9,28Z"/>
            <path d="M26,27.33a3,3,0,0,1-5.8.67H23A6.92,6.92,0,0,0,26,27.33Z"/>
            <path d="M9,4A6.92,6.92,0,0,0,4.1,6,5,5,0,0,1,9,2H23a5,5,0,0,1,4.9,4A6.92,6.92,0,0,0,23,4Z"/>
            <path d="M23,18H9a7,7,0,0,1-5-2.11V21a5,5,0,0,0,5,5H23a5,5,0,0,0,5-5V15.89A7,7,0,0,1,23,18ZM10,24a2,2,0,1,1,2-2A2,2,0,0,1,10,24Zm12,0a2,2,0,1,1,2-2A2,2,0,0,1,22,24Z"/>
            <path d="M23,6H9A5,5,0,0,0,9,16H23A5,5,0,0,0,23,6Z"/>
        </g>
    </g>
</svg>