<svg xmlns="http://www.w3.org/2000/svg" viewBox="0 0 32 32">
    <title>car</title>
    <g id="car">
        <path id="car-2" data-name="car"
              d="M27,14H25.49a1,1,0,0,1-1-.71L22.81,7.56A5,5,0,0,0,18,4H9.71A5,5,0,0,0,5.07,7.14L2.22,14.27A2.87,2.87,0,0,0,2,15.39V20a5,5,0,0,0,4.11,4.92,4,4,0,0,0,7.76.08h4.26a4,4,0,0,0,7.74,0H27a3,3,0,0,0,3-3V17A3,3,0,0,0,27,14ZM10,26a2,2,0,1,1,2-2A2,2,0,0,1,10,26Zm5-12H4.47L6.92,7.89A3,3,0,0,1,9.71,6H15Zm2,0V6h1A3,3,0,0,1,20.9,8.14l1.71,5.72a.84.84,0,0,0,.06.14Zm5,12a2,2,0,1,1,2-2A2,2,0,0,1,22,26Zm6-6H27a1,1,0,0,1,0-2h1Z"/>
    </g>
</svg>