<svg xmlns="http://www.w3.org/2000/svg" viewBox="0 0 32 32">
    <title>cart</title>
    <g id="cart">
        <path d="M26.81,7.77A5,5,0,0,0,23,6H7.75A3,3,0,0,0,4.93,4H4A1,1,0,0,0,4,6h.93a1,1,0,0,1,1,.87L6,7.1H6l1.33,12h0l.25,2.22A3,3,0,0,0,10.19,24,2.94,2.94,0,0,0,10,25a3,3,0,1,0,5.82-1h2.36a3,3,0,1,0,5.64,0H25a1,1,0,0,0,0-2H10.51a1,1,0,0,1-1-.89L9.39,20H22.33a5,5,0,0,0,4.93-4.18l.67-4A5,5,0,0,0,26.81,7.77ZM14,25a1,1,0,1,1-1-1A1,1,0,0,1,14,25Zm8,0a1,1,0,1,1-1-1A1,1,0,0,1,22,25Z"/>
    </g>
</svg>