<svg xmlns="http://www.w3.org/2000/svg" viewBox="0 0 32 32">
    <title>city</title>
    <g id="city">
        <path id="city-2" data-name="city"
              d="M29,28H28V11a3,3,0,0,0-3-3H20V28H18V5a3,3,0,0,0-3-3H7A3,3,0,0,0,4,5V28H3a1,1,0,0,0,0,2H29a1,1,0,0,0,0-2ZM23,12h2a1,1,0,0,1,0,2H23a1,1,0,0,1,0-2Zm0,4h2a1,1,0,0,1,0,2H23a1,1,0,0,1,0-2Zm0,4h2a1,1,0,0,1,0,2H23a1,1,0,0,1,0-2Zm0,4h2a1,1,0,0,1,0,2H23a1,1,0,0,1,0-2ZM13,7a1,1,0,1,1-1,1A1,1,0,0,1,13,7Zm0,4a1,1,0,1,1-1,1A1,1,0,0,1,13,11Zm0,4a1,1,0,1,1-1,1A1,1,0,0,1,13,15Zm0,4a1,1,0,1,1-1,1A1,1,0,0,1,13,19Zm0,4a1,1,0,1,1-1,1A1,1,0,0,1,13,23ZM9,7A1,1,0,1,1,8,8,1,1,0,0,1,9,7Zm0,4a1,1,0,1,1-1,1A1,1,0,0,1,9,11Zm0,4a1,1,0,1,1-1,1A1,1,0,0,1,9,15Zm0,4a1,1,0,1,1-1,1A1,1,0,0,1,9,19Zm0,4a1,1,0,1,1-1,1A1,1,0,0,1,9,23Z"/>
    </g>
</svg>