<svg xmlns="http://www.w3.org/2000/svg" viewBox="0 0 32 32">
    <title>connection</title>
    <g id="connection">
        <path d="M27.31,10.69a16,16,0,0,0-22.62,0,1,1,0,0,0,0,1.41,1,1,0,0,0,1.41,0,14,14,0,0,1,19.8,0,1,1,0,0,0,1.41-1.41Z"/>
        <path d="M7.51,13.51a1,1,0,0,0,1.42,1.42,10,10,0,0,1,14.14,0,1,1,0,0,0,.71.29,1,1,0,0,0,.71-.29,1,1,0,0,0,0-1.42A12,12,0,0,0,7.51,13.51Z"/>
        <path d="M10.34,16.34a1,1,0,0,0,1.42,1.42,6,6,0,0,1,8.48,0,1,1,0,0,0,1.42,0,1,1,0,0,0,0-1.42A8,8,0,0,0,10.34,16.34Z"/>
        <path d="M13.17,19.17a4,4,0,1,0,5.66,0A4.1,4.1,0,0,0,13.17,19.17Z"/>
    </g>
</svg>