<svg xmlns="http://www.w3.org/2000/svg" viewBox="0 0 32 32"><title>contact</title><g id="contact"><path d="M24,2H9V30H24a5,5,0,0,0,5-5V7A5,5,0,0,0,24,2Zm-9.33,8.33a4.33,4.33,0,1,1,8.66,0v1.34a4.33,4.33,0,1,1-8.66,0ZM26,25a1,1,0,0,1-2,0V21.4a1.44,1.44,0,0,0-1.12-1.32l-1.81,3.26a2.41,2.41,0,0,1-4.14,0l-1.81-3.26A1.44,1.44,0,0,0,14,21.4V25a1,1,0,0,1-2,0V21.4A3.55,3.55,0,0,1,15.67,18h6.66A3.55,3.55,0,0,1,26,21.4Z"/><path d="M18.68,22.37a.39.39,0,0,0,.64,0L20.63,20H17.37Z"/><path d="M3,7V25a5,5,0,0,0,4,4.9V2.1A5,5,0,0,0,3,7Z"/><path d="M19,14a2.33,2.33,0,0,0,2.33-2.33V10.33a2.33,2.33,0,1,0-4.66,0v1.34A2.33,2.33,0,0,0,19,14Z"/></g></svg>