<svg width="32" height="32" viewBox="0 0 32 32" xmlns="http://www.w3.org/2000/svg">
    <path d="M10 28C13.3137 28 16 25.3137 16 22C16 18.6863 13.3137 16 10 16C6.68629 16 4 18.6863 4 22C4 25.3137 6.68629 28 10 28Z"/>
    <path d="M22 16C25.3137 16 28 13.3137 28 10C28 6.68629 25.3137 4 22 4C18.6863 4 16 6.68629 16 10C16 13.3137 18.6863 16 22 16Z"/>
    <path d="M6.15998 14C6.2558 14.0359 6.35769 14.0529 6.45998 14.05C6.68056 14.0601 6.89828 13.9969 7.07918 13.8703C7.26007 13.7437 7.39397 13.5607 7.45998 13.35C7.81992 12.1997 8.40725 11.1334 9.18713 10.2143C9.96701 9.29532 10.9235 8.54231 12 8V9C12 9.26522 12.1053 9.51957 12.2929 9.70711C12.4804 9.89464 12.7348 10 13 10C13.2652 10 13.5196 9.89464 13.7071 9.70711C13.8946 9.51957 14 9.26522 14 9V5C14 4.73478 13.8946 4.48043 13.7071 4.29289C13.5196 4.10536 13.2652 4 13 4H8.99998C8.73477 4 8.48041 4.10536 8.29288 4.29289C8.10534 4.48043 7.99998 4.73478 7.99998 5C7.99998 5.26522 8.10534 5.51957 8.29288 5.70711C8.48041 5.89464 8.73477 6 8.99998 6H11.42C10.0192 6.64011 8.76836 7.56725 7.74857 8.72141C6.72878 9.87557 5.96272 11.231 5.49998 12.7C5.45352 12.8285 5.43387 12.9651 5.44225 13.1014C5.45063 13.2378 5.48686 13.371 5.5487 13.4928C5.61055 13.6146 5.69669 13.7225 5.80183 13.8097C5.90696 13.8969 6.02885 13.9617 6.15998 14Z"/>
    <path d="M19 22C18.7348 22 18.4804 22.1054 18.2929 22.2929C18.1054 22.4804 18 22.7348 18 23V27C18 27.2652 18.1054 27.5196 18.2929 27.7071C18.4804 27.8946 18.7348 28 19 28H23C23.2652 28 23.5196 27.8946 23.7071 27.7071C23.8946 27.5196 24 27.2652 24 27C24 26.7348 23.8946 26.4804 23.7071 26.2929C23.5196 26.1054 23.2652 26 23 26H20.57C22.1462 25.2808 23.5303 24.1994 24.6095 22.844C25.6886 21.4885 26.4323 19.8973 26.78 18.2C26.8063 18.0687 26.8064 17.9335 26.7804 17.8021C26.7544 17.6707 26.7028 17.5457 26.6285 17.4343C26.5542 17.3229 26.4587 17.2272 26.3475 17.1527C26.2362 17.0781 26.1113 17.0263 25.98 17C25.8487 16.9737 25.7135 16.9736 25.5821 16.9996C25.4507 17.0256 25.3257 17.0772 25.2143 17.1515C25.1029 17.2258 25.0072 17.3213 24.9327 17.4325C24.8581 17.5438 24.8063 17.6687 24.78 17.8C24.5085 19.1357 23.9372 20.3923 23.1092 21.475C22.2812 22.5577 21.218 23.4382 20 24.05V23C20 22.7348 19.8946 22.4804 19.7071 22.2929C19.5196 22.1054 19.2652 22 19 22Z"/>
</svg>
