<svg xmlns="http://www.w3.org/2000/svg" viewBox="0 0 32 32"><title>download-file</title><g id="download-file"><path d="M21,12a3,3,0,0,1-3-3V2H9A5,5,0,0,0,4,7V25a5,5,0,0,0,5,5H23a5,5,0,0,0,5-5V12Zm-8.71,5.64a1,1,0,0,1,1.42,0L15,18.94V15a1,1,0,0,1,2,0v3.94l1.29-1.3a1,1,0,0,1,1.42,1.42l-2.4,2.4a1.86,1.86,0,0,1-2.62,0l-2.4-2.4A1,1,0,0,1,12.29,17.64ZM20,26H12a3,3,0,0,1-3-3,1,1,0,0,1,2,0,1,1,0,0,0,1,1h8a1,1,0,0,0,1-1,1,1,0,0,1,2,0A3,3,0,0,1,20,26Z"/><path d="M27.91,10H21a1,1,0,0,1-1-1V2.09a5.76,5.76,0,0,1,3.12,1.62l3.17,3.17A5.79,5.79,0,0,1,27.91,10Z"/></g></svg>