<svg xmlns="http://www.w3.org/2000/svg" viewBox="0 0 32 32"><title>globe</title><g id="globe"><path d="M10,17a17.51,17.51,0,0,0,4,10.29,2,2,0,0,0,1.5.68h.93A2,2,0,0,0,18,27.31,17.63,17.63,0,0,0,22,17Z"/><path d="M16.48,4h-.94A2,2,0,0,0,14,4.68,17.56,17.56,0,0,0,10,15H22A17.6,17.6,0,0,0,18,4.69,1.94,1.94,0,0,0,16.48,4Z"/><path d="M24,15h4A12,12,0,0,0,20.42,4.84,18.91,18.91,0,0,1,24,15Z"/><path d="M24,17a18.94,18.94,0,0,1-3.58,10.16A12,12,0,0,0,28,17Z"/><path d="M8,17H4a12,12,0,0,0,7.6,10.17A18.8,18.8,0,0,1,8,17Z"/><path d="M8,15A18.83,18.83,0,0,1,11.6,4.83,12,12,0,0,0,4,15Z"/></g></svg>