<svg xmlns="http://www.w3.org/2000/svg" viewBox="0 0 32 32">
    <title>graduation-hat</title>
    <g id="graduation-hat">
        <path d="M24.8,19.81v3.42a5,5,0,0,1-5,5h-8a5,5,0,0,1-5-5V19.58l2,1.16,4.4,2.57a5.6,5.6,0,0,0,5.6,0l4-2.33Z"/>
        <path d="M29.8,12.53A3.52,3.52,0,0,1,28,15.6l-10.25,6a3.58,3.58,0,0,1-3.58,0L4,15.6A3.56,3.56,0,0,1,4,9.46l10.25-6a3.58,3.58,0,0,1,3.58,0L28,9.46A3.53,3.53,0,0,1,29.8,12.53Z"/>
        <path d="M29.8,23.23a2,2,0,0,1-4,0,2,2,0,0,1,1-1.72V18.64l2-1.16v4A2,2,0,0,1,29.8,23.23Z"/>
    </g>
</svg>