<svg id="medical" xmlns="http://www.w3.org/2000/svg" viewBox="0 0 32 32">
    <title>medical</title>
    <path d="M21,14H19a1,1,0,0,1-1-1V11a1,1,0,0,0-1-1H15a1,1,0,0,0-1,1v2a1,1,0,0,1-1,1H11a1,1,0,0,0-1,1v2a1,1,0,0,0,1,1h2a1,1,0,0,1,1,1v2a1,1,0,0,0,1,1h2a1,1,0,0,0,1-1V19a1,1,0,0,1,1-1h2a1,1,0,0,0,1-1V15A1,1,0,0,0,21,14Z"/>
    <path d="M23,4H9A5,5,0,0,0,4,9V23a5,5,0,0,0,5,5H23a5,5,0,0,0,5-5V9A5,5,0,0,0,23,4Zm1,13a3,3,0,0,1-3,3H20v1a3,3,0,0,1-3,3H15a3,3,0,0,1-3-3V20H11a3,3,0,0,1-3-3V15a3,3,0,0,1,3-3h1V11a3,3,0,0,1,3-3h2a3,3,0,0,1,3,3v1h1a3,3,0,0,1,3,3Z"/>
</svg>