<svg xmlns="http://www.w3.org/2000/svg" viewBox="0 0 32 32"><title>meeting</title><g id="meeting"><path d="M28.31,20.12V21a3.12,3.12,0,1,1-6.23,0v-.84a3.12,3.12,0,1,1,6.23,0Z"/><path d="M9.92,20.12V21a3.12,3.12,0,1,1-6.23,0v-.84a3.12,3.12,0,1,1,6.23,0Z"/><path d="M19.12,5.12V6a3.12,3.12,0,0,1-6.24,0V5.12a3.12,3.12,0,0,1,6.24,0Z"/><path d="M16,26a10,10,0,0,1-4.59-1.11,1,1,0,0,1,.92-1.78,8.07,8.07,0,0,0,7.23.06A1,1,0,0,1,20.45,25,9.93,9.93,0,0,1,16,26Z"/><path d="M24.94,16a1,1,0,0,1-1-.89,6.61,6.61,0,0,0-.15-.89A7.92,7.92,0,0,0,21.33,10a1,1,0,0,1,1.34-1.49,10.05,10.05,0,0,1,3.27,6.34,1,1,0,0,1-.88,1.1Z"/><path d="M7.06,16H6.94a1,1,0,0,1-.88-1.1A10.05,10.05,0,0,1,9.33,8.55,1,1,0,0,1,10.67,10,7.92,7.92,0,0,0,8.2,14.22a6.61,6.61,0,0,0-.15.89A1,1,0,0,1,7.06,16Z"/><path d="M8.92,25H4.69A2.7,2.7,0,0,0,2,27.69V29a1,1,0,0,0,1,1h8v-.08a1,1,0,0,0,.62-.92V27.69A2.7,2.7,0,0,0,8.92,25Z"/><path d="M27.31,25H23.08a2.7,2.7,0,0,0-2.7,2.69V29a1,1,0,0,0,.62.92V30h8a1,1,0,0,0,1-1V27.69A2.7,2.7,0,0,0,27.31,25Z"/><path d="M18.12,10H13.88a2.7,2.7,0,0,0-2.69,2.69V14A1,1,0,0,0,12,15v0h8v0a1,1,0,0,0,.81-1V12.69A2.7,2.7,0,0,0,18.12,10Z"/></g></svg>