<svg xmlns="http://www.w3.org/2000/svg" viewBox="0 0 32 32">
    <title>money-2</title>
    <g id="money-2-2" data-name="money-2">
        <g id="Money-3" data-name="Money">
            <path d="M30,18.69a3.16,3.16,0,0,1-1.63,2.73l-14,7.9A5.3,5.3,0,0,1,9,29.23L3.53,25.9A3.15,3.15,0,0,1,2,23.11a3.57,3.57,0,0,1,0-.47A4.73,4.73,0,0,0,2.5,23L8,26.29a3.75,3.75,0,0,0,.44.24l.06,0a7.19,7.19,0,0,0,3.29.79,7.36,7.36,0,0,0,3.58-.94l12.37-7,1.67-.94a6.17,6.17,0,0,0,.6-.39A2.75,2.75,0,0,1,30,18.69Z"/>
            <path d="M30,14a3.17,3.17,0,0,1-1.63,2.74l-1.2.67L14.36,24.67A5.3,5.3,0,0,1,9,24.58L4.79,22l-1.26-.77A3,3,0,0,1,3,20.84a3.12,3.12,0,0,1-1-2.38,3.18,3.18,0,0,1,.14-.88,3.75,3.75,0,0,0,.36.24L4,18.75l1.2.73,2,1.19.78.47a7.3,7.3,0,0,0,7.37.12L24.76,16l2-1.13,1.25-.7,1.36-.77a4.45,4.45,0,0,0,.51-.33A3,3,0,0,1,30,14Z"/>
            <path d="M28.5,6.1,23,2.77a5.31,5.31,0,0,0-5.35-.09l-14,7.9A3.16,3.16,0,0,0,2,13.31a3,3,0,0,0,.14,1,3.09,3.09,0,0,0,1.15,1.63,2.07,2.07,0,0,0,.24.17l1.68,1,2,1.19.06,0L9,19.43l.19.11a5.28,5.28,0,0,0,2.56.66,5.34,5.34,0,0,0,2.6-.68l8.44-4.75,2-1.11h0l2-1.12,1.63-.91.34-.21a3.12,3.12,0,0,0,1.15-1.64A3.2,3.2,0,0,0,28.5,6.1Zm-8.12,5.7a3.26,3.26,0,0,1-1,1.16,4.25,4.25,0,0,1-2.45.76,1.94,1.94,0,0,1-.34,0,3.59,3.59,0,0,1-.72-.11l-.09,0-.07,0a4.18,4.18,0,0,1-2-1.19,3.73,3.73,0,0,1-.52-.73,3.18,3.18,0,0,1-.35-1.08,3.39,3.39,0,0,1,0-.55A2.77,2.77,0,0,1,13,9.19a3.47,3.47,0,0,1,2-2,4.54,4.54,0,0,1,3-.11,3.74,3.74,0,0,1,.72.29,3.48,3.48,0,0,1,.83.54,3.29,3.29,0,0,1,.93,1.22,3,3,0,0,1,.28,1.41,2.59,2.59,0,0,1-.1.63l-.08.26A1.74,1.74,0,0,1,20.38,11.8Zm2.43.67-.24-.14a2.1,2.1,0,0,1,.26.13Z"/>
            <path d="M18.73,10.48a1.14,1.14,0,0,1-.54.84,2.34,2.34,0,0,1-1.89.33,2.37,2.37,0,0,1-.76-.33,1.72,1.72,0,0,1-.6-.63,1,1,0,0,1-.08-.81,1.53,1.53,0,0,1,.86-.81,2.37,2.37,0,0,1,.88-.16,2.52,2.52,0,0,1,1.62.55,1.43,1.43,0,0,1,.51,1Z"/>
        </g>
    </g>
</svg>