<svg xmlns="http://www.w3.org/2000/svg" viewBox="0 0 32 32">
    <title>museum</title>
    <g id="museum">
        <g id="museum-2" data-name="museum">
            <path d="M29,28H28V27a3,3,0,0,0-2-2.82A2.77,2.77,0,0,0,25,24H7a2.77,2.77,0,0,0-1,.18A3,3,0,0,0,4,27v1H3a1,1,0,0,0,0,2H29a1,1,0,0,0,0-2Z"/>
            <rect x="6" y="16" width="6" height="6"/>
            <rect x="20" y="16" width="6" height="6"/>
            <path d="M6,13.82A2.77,2.77,0,0,0,7,14H25a2.77,2.77,0,0,0,1-.18A3,3,0,0,0,28,11v-.81a3,3,0,0,0-1.56-2.64l-9-4.91a3,3,0,0,0-2.88,0l-9,4.91A3,3,0,0,0,4,10.19V11A3,3,0,0,0,6,13.82Z"/>
        </g>
    </g>
</svg>