<svg xmlns="http://www.w3.org/2000/svg" viewBox="0 0 32 32"><title>organization</title><g id="organization"><path d="M25.19,24.08A3.12,3.12,0,0,0,28.31,21v-.84a3.12,3.12,0,1,0-6.23,0V21A3.12,3.12,0,0,0,25.19,24.08Z"/><path d="M6.81,24.08A3.12,3.12,0,0,0,9.92,21v-.84a3.12,3.12,0,1,0-6.23,0V21A3.12,3.12,0,0,0,6.81,24.08Z"/><path d="M16,9.08A3.12,3.12,0,0,0,19.12,6V5.12a3.12,3.12,0,0,0-6.24,0V6A3.12,3.12,0,0,0,16,9.08Z"/><path d="M19,21H17V18a1,1,0,0,0-2,0v3H13a1,1,0,0,0,0,2h6a1,1,0,0,0,0-2Z"/><path d="M8.92,25H4.69A2.7,2.7,0,0,0,2,27.69V29a1,1,0,0,0,1,1h8v-.08a1,1,0,0,0,.62-.92V27.69A2.7,2.7,0,0,0,8.92,25Z"/><path d="M27.31,25H23.08a2.7,2.7,0,0,0-2.7,2.69V29a1,1,0,0,0,.62.92V30h8a1,1,0,0,0,1-1V27.69A2.7,2.7,0,0,0,27.31,25Z"/><path d="M20.81,14V12.69A2.7,2.7,0,0,0,18.12,10H13.88a2.7,2.7,0,0,0-2.69,2.69V14A1,1,0,0,0,12,15v0h8v0A1,1,0,0,0,20.81,14Z"/></g></svg>