<svg xmlns="http://www.w3.org/2000/svg" viewBox="0 0 32 32">
    <title>piggy-bank</title>
    <g id="piggy-bank">
        <path id="Piggy_Bank" data-name="Piggy Bank"
              d="M26.06,11l-.25-.47a.15.15,0,0,1,.05-.18A3,3,0,0,0,27,8V6a1,1,0,0,0-1-1H24.08a3.09,3.09,0,0,0-2.73,1.65A8.92,8.92,0,0,0,18,6H14.3A9.29,9.29,0,0,0,5,14.92a9.8,9.8,0,0,0,.13,1.54A.91.91,0,0,1,5,16a1,1,0,0,0-2,0,3,3,0,0,0,2.94,3,8.88,8.88,0,0,0,1.81,2.48.9.9,0,0,1,.25.66V24a3.09,3.09,0,0,0,2.5,3.07,3,3,0,0,0,2.44-.68A3,3,0,0,0,14,24.11V24h2a3.09,3.09,0,0,0,2.5,3.07,4.21,4.21,0,0,0,.5,0,3,3,0,0,0,1.94-.72A3,3,0,0,0,22,24.11V23.06A9.11,9.11,0,0,0,26.06,19,3,3,0,0,0,29,16V14A3,3,0,0,0,26.06,11Zm-6.39,1.85a1,1,0,0,1-.67.26,1,1,0,0,1-.74-.33l-.11-.12A2,2,0,0,0,16.67,12H15.33a2,2,0,0,0-1.48.66l-.11.12a1,1,0,0,1-1.48-1.34l.1-.12a4,4,0,0,1,3-1.32h1.34a4,4,0,0,1,3,1.32l.1.12A1,1,0,0,1,19.67,12.85Z"/>
    </g>
</svg>