<svg viewBox="0 0 26 26" xmlns="http://www.w3.org/2000/svg">
    <mask id="path-1-inside-1_4855_2795">
        <path d="M14.2584 14.3104L24.264 14.3104C24.4358 14.3237 24.6084 14.3013 24.7711 14.2447C24.9338 14.1881 25.0831 14.0985 25.2095 13.9814C25.336 13.8644 25.4368 13.7225 25.5058 13.5647C25.5748 13.4068 25.6104 13.2364 25.6104 13.0641C25.6104 12.8918 25.5748 12.7214 25.5058 12.5635C25.4368 12.4057 25.336 12.2638 25.2095 12.1468C25.0831 12.0297 24.9338 11.9401 24.7711 11.8835C24.6084 11.8269 24.4358 11.8045 24.264 11.8178L14.2584 11.8178L14.2584 1.81226C14.2341 1.49837 14.0923 1.2052 13.8613 0.991339C13.6302 0.777479 13.327 0.65868 13.0122 0.65868C12.6973 0.65868 12.3941 0.777479 12.163 0.991339C11.932 1.2052 11.7902 1.49837 11.7659 1.81226L11.7659 11.8178L1.76032 11.8178C1.43009 11.8188 1.11367 11.9504 0.880158 12.1839C0.646649 12.4174 0.515031 12.7339 0.514048 13.0641C0.515031 13.3943 0.64665 13.7107 0.880159 13.9443C1.11367 14.1778 1.43009 14.3094 1.76032 14.3104L11.7659 14.3104L11.7659 24.3159C11.7669 24.6462 11.8985 24.9626 12.132 25.1961C12.3655 25.4296 12.6819 25.5612 13.0122 25.5622C13.3424 25.5612 13.6588 25.4296 13.8923 25.1961C14.1258 24.9626 14.2575 24.6462 14.2584 24.3159L14.2584 14.3104Z"/>
    </mask>
    <path d="M14.2584 14.3104L24.264 14.3104C24.4358 14.3237 24.6084 14.3013 24.7711 14.2447C24.9338 14.1881 25.0831 14.0985 25.2095 13.9814C25.336 13.8644 25.4368 13.7225 25.5058 13.5647C25.5748 13.4068 25.6104 13.2364 25.6104 13.0641C25.6104 12.8918 25.5748 12.7214 25.5058 12.5635C25.4368 12.4057 25.336 12.2638 25.2095 12.1468C25.0831 12.0297 24.9338 11.9401 24.7711 11.8835C24.6084 11.8269 24.4358 11.8045 24.264 11.8178L14.2584 11.8178L14.2584 1.81226C14.2341 1.49837 14.0923 1.2052 13.8613 0.991339C13.6302 0.777479 13.327 0.65868 13.0122 0.65868C12.6973 0.65868 12.3941 0.777479 12.163 0.991339C11.932 1.2052 11.7902 1.49837 11.7659 1.81226L11.7659 11.8178L1.76032 11.8178C1.43009 11.8188 1.11367 11.9504 0.880158 12.1839C0.646649 12.4174 0.515031 12.7339 0.514048 13.0641C0.515031 13.3943 0.64665 13.7107 0.880159 13.9443C1.11367 14.1778 1.43009 14.3094 1.76032 14.3104L11.7659 14.3104L11.7659 24.3159C11.7669 24.6462 11.8985 24.9626 12.132 25.1961C12.3655 25.4296 12.6819 25.5612 13.0122 25.5622C13.3424 25.5612 13.6588 25.4296 13.8923 25.1961C14.1258 24.9626 14.2575 24.6462 14.2584 24.3159L14.2584 14.3104Z"/>
    <path d="M14.2584 14.3104L14.2584 11.8104L11.7584 11.8104L11.7584 14.3104L14.2584 14.3104ZM24.264 14.3104L24.4568 11.8178L24.3606 11.8104L24.264 11.8104L24.264 14.3104ZM24.264 11.8178L24.264 14.3178L24.3606 14.3178L24.4568 14.3104L24.264 11.8178ZM14.2584 11.8178L11.7584 11.8178L11.7584 14.3178L14.2584 14.3178L14.2584 11.8178ZM14.2584 1.81226L16.7584 1.81226L16.7584 1.71569L16.751 1.61942L14.2584 1.81226ZM11.7659 1.81226L9.27333 1.61942L9.26588 1.7157L9.26588 1.81226L11.7659 1.81226ZM11.7659 11.8178L11.7659 14.3178L14.2659 14.3178L14.2659 11.8178L11.7659 11.8178ZM1.76032 11.8178L1.76032 9.31781L1.75289 9.31783L1.76032 11.8178ZM0.514048 13.0641L-1.98594 13.0567L-1.98596 13.0641L-1.98594 13.0715L0.514048 13.0641ZM1.76032 14.3104L1.75289 16.8104L1.76032 16.8104L1.76032 14.3104ZM11.7659 14.3104L14.2659 14.3104L14.2659 11.8104L11.7659 11.8104L11.7659 14.3104ZM11.7659 24.3159L9.26587 24.3159L9.2659 24.3234L11.7659 24.3159ZM13.0122 25.5622L13.0047 28.0622L13.0122 28.0622L13.0196 28.0622L13.0122 25.5622ZM14.2584 24.3159L16.7584 24.3234L16.7584 24.3159L14.2584 24.3159ZM14.2584 16.8104L24.264 16.8104L24.264 11.8104L14.2584 11.8104L14.2584 16.8104ZM24.0712 16.8029C24.5865 16.8428 25.1044 16.7757 25.5926 16.6059L23.9497 11.8835C24.1124 11.8269 24.2851 11.8045 24.4568 11.8178L24.0712 16.8029ZM25.5926 16.6059C26.0807 16.4361 26.5285 16.1672 26.9077 15.8161L23.5113 12.1468C23.6377 12.0297 23.787 11.9401 23.9497 11.8835L25.5926 16.6059ZM26.9077 15.8161C27.287 15.465 27.5897 15.0393 27.7966 14.5658L23.215 12.5635C23.284 12.4057 23.3849 12.2638 23.5113 12.1468L26.9077 15.8161ZM27.7966 14.5658C28.0036 14.0922 28.1104 13.5809 28.1104 13.0641L23.1104 13.0641C23.1104 12.8918 23.146 12.7214 23.215 12.5635L27.7966 14.5658ZM28.1104 13.0641C28.1104 12.5473 28.0036 12.036 27.7966 11.5624L23.215 13.5647C23.146 13.4068 23.1104 13.2364 23.1104 13.0641L28.1104 13.0641ZM27.7966 11.5624C27.5897 11.0888 27.287 10.6632 26.9077 10.3121L23.5113 13.9814C23.3849 13.8644 23.284 13.7225 23.215 13.5647L27.7966 11.5624ZM26.9077 10.3121C26.5285 9.961 26.0807 9.69212 25.5926 9.5223L23.9497 14.2447C23.787 14.1881 23.6377 14.0985 23.5113 13.9814L26.9077 10.3121ZM25.5926 9.5223C25.1044 9.35248 24.5864 9.2854 24.0712 9.32527L24.4568 14.3104C24.2851 14.3237 24.1124 14.3013 23.9497 14.2447L25.5926 9.5223ZM24.264 9.31782L14.2584 9.31782L14.2584 14.3178L24.264 14.3178L24.264 9.31782ZM16.7584 11.8178L16.7584 1.81226L11.7584 1.81226L11.7584 11.8178L16.7584 11.8178ZM16.751 1.61942C16.6781 0.677746 16.2526 -0.20176 15.5595 -0.843341L12.163 2.82602C11.932 2.61216 11.7902 2.31899 11.7659 2.0051L16.751 1.61942ZM15.5595 -0.843341C14.8664 -1.48492 13.9566 -1.84132 13.0122 -1.84132L13.0122 3.15868C12.6973 3.15868 12.3941 3.03988 12.163 2.82602L15.5595 -0.843341ZM13.0122 -1.84132C12.0677 -1.84132 11.158 -1.48492 10.4648 -0.843341L13.8613 2.82602C13.6302 3.03988 13.327 3.15868 13.0122 3.15868L13.0122 -1.84132ZM10.4648 -0.843341C9.77169 -0.20176 9.34619 0.677746 9.27333 1.61942L14.2584 2.0051C14.2341 2.31899 14.0923 2.61216 13.8613 2.82602L10.4648 -0.843341ZM9.26588 1.81226L9.26588 11.8178L14.2659 11.8178L14.2659 1.81226L9.26588 1.81226ZM11.7659 9.31782L1.76032 9.31782L1.76032 14.3178L11.7659 14.3178L11.7659 9.31782ZM1.75289 9.31783C0.762199 9.32078 -0.187077 9.71563 -0.887608 10.4162L2.64793 13.9517C2.41441 14.1852 2.09799 14.3168 1.76776 14.3178L1.75289 9.31783ZM-0.887608 10.4162C-1.58814 11.1167 -1.98299 12.066 -1.98594 13.0567L3.01404 13.0715C3.01305 13.4018 2.88144 13.7182 2.64793 13.9517L-0.887608 10.4162ZM-1.98594 13.0715C-1.98299 14.0622 -1.58813 15.0115 -0.887607 15.712L2.64793 12.1765C2.88143 12.41 3.01305 12.7264 3.01404 13.0567L-1.98594 13.0715ZM-0.887607 15.712C-0.18708 16.4126 0.762193 16.8074 1.75289 16.8104L1.76776 11.8104C2.09799 11.8114 2.41442 11.943 2.64793 12.1765L-0.887607 15.712ZM1.76032 16.8104L11.7659 16.8104L11.7659 11.8104L1.76032 11.8104L1.76032 16.8104ZM9.26588 14.3104L9.26589 24.3159L14.2659 24.3159L14.2659 14.3104L9.26588 14.3104ZM9.2659 24.3234C9.26884 25.3141 9.6637 26.2633 10.3642 26.9639L13.8998 23.4283C14.1333 23.6618 14.2649 23.9783 14.2659 24.3085L9.2659 24.3234ZM10.3642 26.9639C11.0648 27.6644 12.014 28.0592 13.0047 28.0622L13.0196 23.0622C13.3498 23.0632 13.6663 23.1948 13.8998 23.4283L10.3642 26.9639ZM13.0196 28.0622C14.0103 28.0592 14.9596 27.6644 15.6601 26.9639L12.1246 23.4283C12.3581 23.1948 12.6745 23.0632 13.0047 23.0622L13.0196 28.0622ZM15.6601 26.9639C16.3606 26.2633 16.7555 25.3141 16.7584 24.3234L11.7584 24.3085C11.7594 23.9783 11.891 23.6618 12.1246 23.4283L15.6601 26.9639ZM16.7584 24.3159L16.7584 14.3104L11.7584 14.3104L11.7584 24.3159L16.7584 24.3159Z" mask="url(#path-1-inside-1_4855_2795)"/>
</svg>