<svg xmlns="http://www.w3.org/2000/svg" viewBox="0 0 32 32">
    <title>recurring-bill</title>
    <g id="recurring-bill">
        <g id="Recurring_Bill" data-name="Recurring Bill">
            <path d="M29,25a1,1,0,0,0-1,1,2,2,0,1,1-3-1.74,1,1,0,0,0,1.68.86l1.41-1.41a1,1,0,0,0,0-1.42l-1.41-1.41a1,1,0,0,0-1.42,0,1,1,0,0,0-.13,1.21A4,4,0,1,0,30,26,1,1,0,0,0,29,25Z"/>
            <path d="M24.58,5.53a3,3,0,0,0-2.92-.13l-.3.15a1,1,0,0,1-.82,0L17.11,4.21a3,3,0,0,0-2.22,0L11.46,5.58a1,1,0,0,1-.82,0l-.3-.15A3,3,0,0,0,6,8.08V23a5,5,0,0,0,5,5h9.38A5.78,5.78,0,0,1,20,26v-.08a6,6,0,0,1,3.13-5.26,3,3,0,0,1,.75-1.28l.12-.11a3.27,3.27,0,0,1,.62-.43,3,3,0,0,1,1.18-.32H26V8.08A3,3,0,0,0,24.58,5.53ZM18,21H12a1,1,0,0,1,0-2h6a1,1,0,0,1,0,2Zm2-6H12a1,1,0,0,1,0-2h8a1,1,0,0,1,0,2Z"/>
        </g>
    </g>
</svg>