<svg xmlns="http://www.w3.org/2000/svg" viewBox="0 0 32 32">
    <title>restaurant</title>
    <g id="restaurant">
        <g id="restaurant-2" data-name="restaurant">
            <path d="M22,4a5,5,0,0,0-5,5v2a5,5,0,0,0,4,4.9v2.28A3,3,0,0,0,19,21v4a3,3,0,0,0,6,0V21a3,3,0,0,0-2-2.82V15.9A5,5,0,0,0,27,11V9A5,5,0,0,0,22,4Z"/>
            <path d="M14,4a1,1,0,0,0-1,1V9a1,1,0,0,1-2,0V5A1,1,0,0,0,9,5V9A1,1,0,0,1,7,9V5A1,1,0,0,0,5,5v6a5,5,0,0,0,4,4.9v2.28A3,3,0,0,0,7,21v4a3,3,0,0,0,6,0V21a3,3,0,0,0-2-2.82V15.9A5,5,0,0,0,15,11V5A1,1,0,0,0,14,4Z"/>
        </g>
    </g>
</svg>