<svg xmlns="http://www.w3.org/2000/svg" viewBox="0 0 32 32"><title>upload-file</title><g id="upload-file"><path d="M27.91,10H21a1,1,0,0,1-1-1V2.09a5.76,5.76,0,0,1,3.12,1.62l3.17,3.17A5.79,5.79,0,0,1,27.91,10Z"/><path d="M21,12a3,3,0,0,1-3-3V2H9A5,5,0,0,0,4,7V25a5,5,0,0,0,5,5H23a5,5,0,0,0,5-5V12Zm-8.71,4.94,2.4-2.4A1.86,1.86,0,0,1,15.84,14a.44.44,0,0,1,.32,0,1.86,1.86,0,0,1,1.15.51l2.4,2.4a1,1,0,0,1,0,1.42,1,1,0,0,1-1.42,0L17,17.06V21a1,1,0,0,1-2,0V17.06l-1.29,1.3a1,1,0,0,1-1.42-1.42ZM20,26H12a3,3,0,0,1-3-3,1,1,0,0,1,2,0,1,1,0,0,0,1,1h8a1,1,0,0,0,1-1,1,1,0,0,1,2,0A3,3,0,0,1,20,26Z"/></g></svg>