<svg width="28" height="24" viewBox="0 0 28 24" fill="none" xmlns="http://www.w3.org/2000/svg">
<path d="M14 18C16.7614 18 19 15.7614 19 13C19 10.2386 16.7614 8 14 8C11.2386 8 9 10.2386 9 13C9 15.7614 11.2386 18 14 18Z" fill="#0077FF"/>
<path d="M23 4H22.24C22.0536 4.0013 21.8706 3.95049 21.7116 3.85331C21.5526 3.75612 21.4239 3.61644 21.34 3.45L21 2.76C20.5844 1.93053 19.9461 1.23307 19.1567 0.745635C18.3673 0.258203 17.4578 3.11334e-05 16.53 0H11.47C10.5422 3.11334e-05 9.63274 0.258203 8.84331 0.745635C8.05388 1.23307 7.41565 1.93053 7 2.76L6.66 3.45C6.57614 3.61644 6.44743 3.75612 6.28841 3.85331C6.12938 3.95049 5.94636 4.0013 5.76 4H5C3.67392 4 2.40215 4.52678 1.46447 5.46447C0.526784 6.40215 0 7.67392 0 9V19C0 20.3261 0.526784 21.5979 1.46447 22.5355C2.40215 23.4732 3.67392 24 5 24H23C24.3261 24 25.5979 23.4732 26.5355 22.5355C27.4732 21.5979 28 20.3261 28 19V9C28 7.67392 27.4732 6.40215 26.5355 5.46447C25.5979 4.52678 24.3261 4 23 4ZM14 20C12.6155 20 11.2622 19.5895 10.111 18.8203C8.95986 18.0511 8.06266 16.9579 7.53284 15.6788C7.00303 14.3997 6.86441 12.9922 7.1345 11.6344C7.4046 10.2765 8.07129 9.02922 9.05025 8.05025C10.0292 7.07129 11.2765 6.4046 12.6344 6.1345C13.9922 5.86441 15.3997 6.00303 16.6788 6.53284C17.9579 7.06266 19.0511 7.95986 19.8203 9.11101C20.5895 10.2622 21 11.6155 21 13C21 14.8565 20.2625 16.637 18.9497 17.9497C17.637 19.2625 15.8565 20 14 20ZM23 10C22.8022 10 22.6089 9.94135 22.4444 9.83147C22.28 9.72159 22.1518 9.56541 22.0761 9.38268C22.0004 9.19996 21.9806 8.99889 22.0192 8.80491C22.0578 8.61093 22.153 8.43275 22.2929 8.29289C22.4327 8.15304 22.6109 8.0578 22.8049 8.01921C22.9989 7.98063 23.2 8.00043 23.3827 8.07612C23.5654 8.15181 23.7216 8.27998 23.8315 8.44443C23.9414 8.60888 24 8.80222 24 9C24 9.26522 23.8946 9.51957 23.7071 9.70711C23.5196 9.89464 23.2652 10 23 10Z" fill="#0077FF"/>
</svg>
