<svg width="32" height="32" viewBox="0 0 32 32" xmlns="http://www.w3.org/2000/svg">
    <path d="M12 15C14.2091 15 16 13.2091 16 11C16 8.79086 14.2091 7 12 7C9.79086 7 8 8.79086 8 11C8 13.2091 9.79086 15 12 15Z"/>
    <path d="M20 25C22.2091 25 24 23.2091 24 21C24 18.7909 22.2091 17 20 17C17.7909 17 16 18.7909 16 21C16 23.2091 17.7909 25 20 25Z"/>
    <path d="M6 11C5.99928 11.3354 6.02941 11.6701 6.09 12H5C4.73478 12 4.48043 11.8946 4.29289 11.7071C4.10536 11.5196 4 11.2652 4 11C4 10.7348 4.10536 10.4804 4.29289 10.2929C4.48043 10.1054 4.73478 10 5 10H6.09C6.02941 10.3299 5.99928 10.6646 6 11Z"/>
    <path d="M28 11C28 11.2652 27.8946 11.5196 27.7071 11.7071C27.5196 11.8946 27.2652 12 27 12H17.91C18.03 11.3387 18.03 10.6613 17.91 10H27C27.2652 10 27.5196 10.1054 27.7071 10.2929C27.8946 10.4804 28 10.7348 28 11Z"/>
    <path d="M28 21C28 21.2652 27.8946 21.5196 27.7071 21.7071C27.5196 21.8946 27.2652 22 27 22H25.91C26.03 21.3387 26.03 20.6613 25.91 20H27C27.2652 20 27.5196 20.1054 27.7071 20.2929C27.8946 20.4804 28 20.7348 28 21Z"/>
    <path d="M14 21C13.9993 21.3354 14.0294 21.6701 14.09 22H5C4.73478 22 4.48043 21.8946 4.29289 21.7071C4.10536 21.5196 4 21.2652 4 21C4 20.7348 4.10536 20.4804 4.29289 20.2929C4.48043 20.1054 4.73478 20 5 20H14.09C14.0294 20.3299 13.9993 20.6646 14 21Z"/>
</svg>
