<svg xmlns="http://www.w3.org/2000/svg" viewBox="0 0 32 32"><title>settings</title><g id="settings"><circle cx="16" cy="16" r="2"/><path d="M25.79,17l-.38-.23a.94.94,0,0,1,0-1.62l.38-.23a3,3,0,0,0,1.1-4.09l-1-1.74A3,3,0,0,0,21.79,8l-.32.18A1,1,0,0,1,20,7.36V7a3,3,0,0,0-3-3H15a3,3,0,0,0-3,3v.36a1,1,0,0,1-1.48.86L10.21,8a3,3,0,0,0-4.1,1.09l-1,1.74A3,3,0,0,0,6.21,15l.38.23a.94.94,0,0,1,0,1.62L6.21,17a3,3,0,0,0-1.1,4.09l1,1.74A3,3,0,0,0,10.21,24l.31-.17a1,1,0,0,1,1,0,1,1,0,0,1,.49.84V25a3,3,0,0,0,3,3h2a3,3,0,0,0,3-3v-.37a1,1,0,0,1,.5-.84,1,1,0,0,1,1,0l.31.18a3,3,0,0,0,4.1-1.09l1-1.74A3,3,0,0,0,25.79,17ZM16,20a4,4,0,1,1,4-4A4,4,0,0,1,16,20Z"/></g></svg>