<svg width="32" height="32" viewBox="0 0 32 32" xmlns="http://www.w3.org/2000/svg">
    <path d="M28 19C28 19.6566 27.8707 20.3068 27.6194 20.9134C27.3681 21.5201 26.9998 22.0713 26.5355 22.5356C26.0712 22.9999 25.52 23.3681 24.9134 23.6194C24.3068 23.8707 23.6566 24 23 24H8.99999C7.83773 23.9959 6.71321 23.587 5.81976 22.8436C4.92631 22.1003 4.31974 21.0689 4.10433 19.9267C3.88892 18.7846 4.07814 17.6031 4.63944 16.5854C5.20075 15.5676 6.09908 14.7772 7.17999 14.35C7.55771 12.591 8.51735 11.0106 9.90394 9.86409C11.2905 8.71762 13.0231 8.07202 14.8218 8.03157C16.6205 7.99111 18.3804 8.55815 19.8171 9.64111C21.2538 10.7241 22.2836 12.2597 22.74 14C23.4181 13.9647 24.0964 14.0679 24.7333 14.3033C25.3703 14.5387 25.9526 14.9014 26.4448 15.3693C26.937 15.8372 27.3287 16.4004 27.5961 17.0246C27.8635 17.6488 28.0009 18.321 28 19Z"/>
</svg>
